<svg width="41" height="41" viewBox="0 0 41 41" fill="none"
    xmlns="http://www.w3.org/2000/svg">
    <path fill-rule="evenodd" clip-rule="evenodd" d="M20.5 0C31.8218 0 41 9.17812 41 20.4999C41 31.8219 31.8218 41 20.5 41C9.17815 41 0 31.8219 0 20.4999C0 9.17812 9.17815 0 20.5 0ZM40.2131 20.4999C40.2131 9.61273 31.3872 0.786792 20.5 0.786792C19.6218 0.786792 18.7571 0.844216 17.9092 0.955516C18.457 0.907622 19.0113 0.883172 19.5715 0.883172C29.9749 0.883172 38.4085 9.31676 38.4085 19.7201C38.4085 30.1233 29.9749 38.5569 19.5715 38.5569C9.72235 38.5569 1.63868 30.998 0.805433 21.3648C1.25808 31.8508 9.90245 40.2131 20.5 40.2131C31.3872 40.2131 40.2131 31.3872 40.2131 20.4999ZM37.6216 19.7201C37.6216 9.75126 29.5403 1.66997 19.5715 1.66997C18.7621 1.66997 17.9651 1.72326 17.1838 1.82649C17.6649 1.78602 18.1516 1.76537 18.6431 1.76537C28.128 1.76537 35.8169 9.45439 35.8169 18.9392C35.8169 28.424 28.128 36.113 18.6431 36.113C9.67492 36.113 2.31228 29.2389 1.5368 20.4722C1.93108 30.0922 9.85469 37.7702 19.5715 37.7702C29.5403 37.7702 37.6216 29.6888 37.6216 19.7201ZM18.6431 2.55217C27.6934 2.55217 35.0302 9.88889 35.0302 18.9392C35.0302 27.9894 27.6934 35.3261 18.6431 35.3261C9.80252 35.3261 2.59694 28.3254 2.26785 19.5653C2.97836 27.4722 9.62288 33.6689 17.7148 33.6689C26.2805 33.6689 33.2245 26.725 33.2245 18.1592C33.2245 9.59342 26.2805 2.64953 17.7148 2.64953C17.2716 2.64953 16.8328 2.66811 16.3991 2.70454C17.1328 2.60407 17.8818 2.55217 18.6431 2.55217ZM32.4376 18.1592C32.4376 10.028 25.846 3.43633 17.7148 3.43633C17.0277 3.43633 16.3516 3.48338 15.6897 3.57444C16.0511 3.54615 16.4165 3.53174 16.7852 3.53174C24.4326 3.53174 30.6319 9.73105 30.6319 17.3784C30.6319 25.0256 24.4326 31.225 16.7852 31.225C9.58745 31.225 3.67238 25.733 3.00192 18.7109C3.29198 26.5865 9.76814 32.8822 17.7148 32.8822C25.846 32.8822 32.4376 26.2905 32.4376 18.1592ZM16.7852 4.31853C23.998 4.31853 29.8451 10.1657 29.8451 17.3784C29.8451 24.5911 23.998 30.4382 16.7852 30.4382C9.71459 30.4382 3.95633 24.8192 3.7322 17.803C4.33754 23.9659 9.53488 28.781 15.8568 28.781C22.5857 28.781 28.0404 23.3262 28.0404 16.5974C28.0404 9.86868 22.5857 4.41393 15.8568 4.41393C15.5483 4.41393 15.2424 4.4254 14.9395 4.44794C15.5425 4.36265 16.1587 4.31853 16.7852 4.31853ZM27.2536 16.5974C27.2536 10.3032 22.1511 5.20073 15.8568 5.20073C15.2823 5.20073 14.7177 5.24324 14.1659 5.3253C14.4178 5.30726 14.672 5.29808 14.9285 5.29808C20.7382 5.29808 25.448 10.0078 25.448 15.8175C25.448 21.6273 20.7382 26.337 14.9285 26.337C9.4844 26.337 5.00626 22.2016 4.46406 16.9007C4.6248 23.0548 9.66399 27.9943 15.8568 27.9943C22.1511 27.9943 27.2536 22.8917 27.2536 16.5974ZM14.9285 6.08489C20.3037 6.08489 24.6611 10.4423 24.6611 15.8175C24.6611 21.1928 20.3037 25.5502 14.9285 25.5502C9.62164 25.5502 5.30685 21.303 5.19788 16.0223C5.68811 20.4497 9.44196 23.893 14.0001 23.893C18.8913 23.893 22.8564 19.9279 22.8564 15.0367C22.8564 10.1454 18.8913 6.18028 14.0001 6.18028C13.813 6.18028 13.6273 6.18608 13.4431 6.19751C13.9274 6.12335 14.4234 6.08489 14.9285 6.08489ZM22.0696 15.0367C22.0696 10.58 18.4568 6.96708 14.0001 6.96708C13.5525 6.96708 13.1135 7.00352 12.6857 7.07358C12.8132 7.06686 12.9415 7.06346 13.0706 7.06346C17.0433 7.06346 20.2639 10.284 20.2639 14.2567C20.2639 18.2295 17.0433 21.4501 13.0706 21.4501C9.3972 21.4501 6.3669 18.6965 5.93111 15.1408C5.98691 19.5496 9.57813 23.1063 14.0001 23.1063C18.4568 23.1063 22.0696 19.4934 22.0696 15.0367ZM13.0706 7.85025C16.6088 7.85025 19.4771 10.7185 19.4771 14.2567C19.4771 17.795 16.6088 20.6632 13.0706 20.6632C9.5324 20.6632 6.66411 17.795 6.66411 14.2567C6.66411 14.2483 6.66413 14.2398 6.66416 14.2313C7.03253 16.9276 9.34475 19.0051 12.1422 19.0051C15.1959 19.0051 17.6714 16.5296 17.6714 13.4759C17.6714 10.4221 15.1959 7.94665 12.1422 7.94665C12.0732 7.94665 12.0044 7.94791 11.9359 7.95042C12.3042 7.88461 12.6834 7.85025 13.0706 7.85025ZM16.8846 13.4759C16.8846 10.8567 14.7614 8.73345 12.1422 8.73345C9.52304 8.73345 7.39978 10.8567 7.39978 13.4759C7.39978 16.095 9.52304 18.2182 12.1422 18.2182C14.7614 18.2182 16.8846 16.095 16.8846 13.4759Z" fill="white"/>
</svg>
