<svg width="19" height="29" viewBox="0 0 19 29" fill="none"
    xmlns="http://www.w3.org/2000/svg">
    <path d="M8.85988 18.1085V25.4679C8.85988 25.75 8.74814 26.0206 8.54922 26.22C8.35041 26.4195 8.08066 26.5316 7.79933 26.5316C7.51811 26.5316 7.24836 26.4195 7.04944 26.22C6.85052 26.0206 6.73879 25.75 6.73879 25.4679V18.1186C7.03411 18.3349 7.3881 18.4557 7.75366 18.4647C8.1521 18.4761 8.54253 18.3504 8.85988 18.1085ZM17.8923 15.981C17.6231 15.981 17.365 16.0883 17.1747 16.2792C16.9844 16.47 16.8774 16.729 16.8774 16.9989V18.2815C16.8774 18.5637 16.9891 18.8342 17.1881 19.0336C17.3869 19.2331 17.6566 19.3452 17.938 19.3452C18.2193 19.3452 18.489 19.2331 18.6878 19.0336C18.8868 18.8342 18.9985 18.5637 18.9985 18.2815V17.0498C19.0064 16.9039 18.9829 16.7579 18.9295 16.6219C18.8761 16.4859 18.7942 16.363 18.6892 16.2616C18.5842 16.1602 18.4587 16.0826 18.3213 16.0342C18.1838 15.9858 18.0374 15.9677 17.8923 15.981ZM4.43501 20.8975C4.06983 20.8865 3.71631 20.766 3.42014 20.5514V27.9312C3.42014 28.2147 3.5324 28.4866 3.73225 28.687C3.93209 28.8874 4.20314 29 4.48576 29C4.76838 29 5.03942 28.8874 5.23926 28.687C5.43911 28.4866 5.55138 28.2147 5.55138 27.9312V20.6023C5.21997 20.8172 4.82895 20.9206 4.43501 20.8975ZM14.5838 13.7722C14.4463 13.7653 14.3089 13.7866 14.1798 13.8346C14.0508 13.8826 13.9328 13.9565 13.8331 14.0517C13.7334 14.147 13.6542 14.2615 13.6 14.3884C13.5459 14.5154 13.518 14.6521 13.5182 14.7901V20.4598C13.5182 20.7433 13.6304 21.0152 13.8302 21.2156C14.0302 21.416 14.3011 21.5286 14.5838 21.5286C14.8664 21.5286 15.1375 21.416 15.3373 21.2156C15.5372 21.0152 15.6494 20.7433 15.6494 20.4598V14.8614C15.6575 14.7145 15.6338 14.5676 15.5798 14.4308C15.5258 14.294 15.443 14.1705 15.3368 14.0689C15.2307 13.9673 15.1039 13.89 14.9652 13.8423C14.8264 13.7946 14.679 13.7776 14.533 13.7926L14.5838 13.7722ZM11.2144 15.9505C10.8321 15.9479 10.46 15.827 10.1488 15.6044V23.0046C10.1488 23.288 10.261 23.5599 10.4608 23.7604C10.6608 23.9608 10.9318 24.0734 11.2144 24.0734C11.497 24.0734 11.768 23.9608 11.9679 23.7604C12.1678 23.5599 12.28 23.288 12.28 23.0046V15.6146C11.9581 15.8551 11.565 15.9805 11.1637 15.9709L11.2144 15.9505ZM2.13124 21.6202V0.946648C2.12857 0.694646 2.02688 0.453892 1.84826 0.276645C1.66965 0.0993981 1.42852 -1.01782e-05 1.17726 7.81641e-10H0.953985C0.702721 -1.01782e-05 0.461597 0.0993981 0.282978 0.276645C0.10436 0.453892 0.00266913 0.694646 0 0.946648V21.6202C0 21.874 0.100513 22.1174 0.279416 22.2968C0.458319 22.4763 0.700976 22.577 0.953985 22.577H1.17726C1.43028 22.577 1.67292 22.4763 1.85183 22.2968C2.03074 22.1174 2.13124 21.874 2.13124 21.6202ZM4.54665 20.1137H4.32338C4.07037 20.1137 3.82771 20.013 3.64881 19.8335C3.46991 19.654 3.36939 19.4107 3.36939 19.1569V3.40997C3.37207 3.15798 3.47375 2.9172 3.65237 2.73997C3.83099 2.56272 4.07211 2.46331 4.32338 2.46332H4.54665C4.79791 2.46331 5.03904 2.56272 5.21766 2.73997C5.39627 2.9172 5.49797 3.15798 5.50064 3.40997V19.1773C5.50064 19.431 5.40012 19.6744 5.22122 19.8539C5.04232 20.0333 4.79966 20.1341 4.54665 20.1341V20.1137ZM7.90589 17.6911H7.67247C7.4222 17.6911 7.18208 17.5914 7.00509 17.4138C6.82809 17.2363 6.72864 16.9956 6.72864 16.7445V5.85293C6.72732 5.72776 6.75076 5.60357 6.79755 5.48754C6.84433 5.3715 6.91365 5.26595 7.00144 5.17696C7.08922 5.08798 7.19376 5.01734 7.30894 4.96913C7.42413 4.92092 7.54764 4.89609 7.67247 4.8961H7.90589C8.15718 4.89879 8.3972 5.00077 8.57389 5.17993C8.75068 5.35908 8.84973 5.60092 8.84973 5.85293V16.7445C8.84973 16.9956 8.75027 17.2363 8.57328 17.4138C8.39628 17.5914 8.15626 17.6911 7.90589 17.6911ZM11.2651 15.1973H11.052C10.8007 15.1973 10.5596 15.0979 10.381 14.9206C10.2024 14.7434 10.1007 14.5026 10.098 14.2506V8.3875C10.0897 8.25681 10.1082 8.1258 10.1524 8.00253C10.1966 7.87937 10.2656 7.76648 10.355 7.67111C10.4444 7.57563 10.5524 7.49969 10.6723 7.44778C10.7922 7.39597 10.9214 7.3693 11.052 7.3696H11.2753C11.5283 7.3696 11.771 7.47038 11.9499 7.64983C12.1288 7.82929 12.2293 8.07267 12.2293 8.32643V14.2303C12.2306 14.3568 12.2069 14.4823 12.1595 14.5996C12.1123 14.7168 12.0422 14.8235 11.9534 14.9135C11.8647 15.0034 11.7592 15.0747 11.6427 15.1235C11.5263 15.1722 11.4014 15.1973 11.2753 15.1973H11.2651ZM14.6345 13.0088H14.4113C14.1582 13.0088 13.9156 12.908 13.7367 12.7285C13.5577 12.5491 13.4573 12.3057 13.4573 12.0519V10.5353C13.4599 10.2832 13.5616 10.0425 13.7402 9.86529C13.9188 9.68797 14.16 9.58863 14.4113 9.58863H14.6345C14.8858 9.58863 15.1269 9.68797 15.3056 9.86529C15.4842 10.0425 15.5859 10.2832 15.5885 10.5353V12.0519C15.5885 12.304 15.4895 12.5458 15.3127 12.725C15.136 12.9041 14.896 13.0061 14.6447 13.0088H14.6345Z" fill="white"/>
</svg>
