<svg width="38" height="39" viewBox="0 0 38 39" fill="none" xmlns="http://www.w3.org/2000/svg">
<path d="M23.9191 1.00621L20.1701 0L17.0106 11.8103L14.1583 1.14788L10.4091 2.1541L13.4909 13.6741L5.81483 5.98555L3.07027 8.73457L11.49 17.168L1.00458 14.3539L0 18.1091L11.4566 21.1839C11.3254 20.6172 11.256 20.0267 11.256 19.4201C11.256 15.1258 14.7315 11.6447 19.0188 11.6447C23.3061 11.6447 26.7816 15.1258 26.7816 19.4201C26.7816 20.0228 26.7131 20.6096 26.5835 21.173L36.9955 23.9674L38 20.2122L26.4978 17.1251L36.9839 14.3108L35.9793 10.5556L24.4776 13.6425L32.1537 5.95398L29.4091 3.20497L21.1062 11.5214L23.9191 1.00621Z" fill="white"/>
<path d="M26.5734 21.2168C26.2519 22.5779 25.5733 23.8007 24.6422 24.7804L32.1852 32.3358L34.9298 29.5868L26.5734 21.2168Z" fill="white"/>
<path d="M24.5658 24.8594C23.6234 25.8234 22.4325 26.5429 21.097 26.9136L23.8418 37.1738L27.5909 36.1675L24.5658 24.8594Z" fill="white"/>
<path d="M20.9572 26.9511C20.3376 27.1106 19.6881 27.1954 19.0189 27.1954C18.3018 27.1954 17.6075 27.098 16.9483 26.9158L14.2011 37.1853L17.9502 38.1914L20.9572 26.9511Z" fill="white"/>
<path d="M16.8158 26.878C15.5008 26.4889 14.331 25.7603 13.4079 24.7935L5.84637 32.3673L8.59093 35.1163L16.8158 26.878Z" fill="white"/>
<path d="M13.3448 24.7263C12.4375 23.7534 11.7766 22.5469 11.462 21.2068L1.01611 24.0103L2.02068 27.7655L13.3448 24.7263Z" fill="white"/>
</svg>
