<svg width="1128" height="700" viewBox="0 0 1128 700" fill="none" xmlns="http://www.w3.org/2000/svg">
<mask id="mask0_103_322" style="mask-type:alpha" maskUnits="userSpaceOnUse" x="0" y="0" width="1128" height="700">
<path d="M1128 0L0 0L0 700L1128 700V0Z" fill="#C4C4C4"/>
</mask>
<g mask="url(#mask0_103_322)">
<path d="M-1004.93 1011.17C-990.13 1010.22 -975.4 1009.15 -960.601 1007.93C-945.8 1006.72 -931.142 1005.5 -916.413 1004.22C-886.86 1001.53 -857.378 998.615 -827.967 995.47C-769.098 989.227 -710.347 982.034 -651.715 973.903C-534.451 957.821 -417.828 938.055 -301.846 914.604C-243.925 902.745 -186.266 889.852 -128.867 875.926C-71.4684 861.999 -14.4731 846.703 42.1191 830.036C98.7586 813.46 154.806 795.266 210.259 775.455C238.009 765.617 265.476 755.104 292.799 744.391L313.22 736.102C320.051 733.272 326.883 730.577 333.642 727.679C347.09 721.885 360.681 716.291 373.987 710.159L394.124 701.198L414.048 691.831L423.938 687.181C427.282 685.631 430.555 683.947 433.828 682.397L453.539 672.694C456.883 671.077 460.085 669.391 463.358 667.707L473.107 662.653L482.854 657.599L487.693 655.106L492.531 652.478L511.744 641.965L516.582 639.337L521.349 636.642L530.813 631.184C556.286 616.832 580.978 601.265 605.313 585.362L623.386 573.099L627.869 569.999L630.146 568.449L632.352 566.899L641.175 560.497L649.998 554.096L654.409 550.929L656.615 549.312L658.75 547.627L675.97 534.353C681.804 530.04 687.283 525.323 692.833 520.741L701.23 513.8L705.428 510.363L709.484 506.792L717.667 499.649C720.37 497.291 723.145 494.932 725.778 492.44L741.717 477.817C762.78 458.141 783.201 437.79 803.195 417.103L818.138 401.469L832.867 385.702C835.286 383.074 837.777 380.513 840.196 377.818L847.454 369.867C852.292 364.543 857.131 359.287 861.969 353.897C871.504 343.182 881.039 332.468 890.431 321.618L897.547 313.465L901.034 309.422L904.521 305.379L918.538 289.005C923.234 283.546 927.788 278.021 932.342 272.496C936.895 266.97 941.592 261.579 946.146 255.986C955.254 244.935 964.362 233.883 973.328 222.698L986.845 205.987L1000.15 189.141L1006.84 180.717L1013.39 172.227L1026.62 155.313C1061.58 109.986 1095.53 63.9846 1128.45 17.3094C1144.82 -6.07302 1161.1 -29.523 1176.9 -53.2424C1192.7 -76.9622 1208.28 -100.884 1223.51 -124.939L1234.82 -143.067L1237.67 -147.581L1240.44 -152.163L1245.93 -161.26C1253.4 -173.389 1260.51 -185.72 1267.76 -197.917C1282 -222.58 1295.81 -247.378 1308.82 -272.58C1295.81 -247.378 1282.07 -222.513 1267.83 -197.917C1260.65 -185.653 1253.54 -173.322 1246.07 -161.193L1240.58 -152.029L1237.81 -147.514L1234.96 -142.931L1223.73 -124.805C1208.49 -100.749 1193.06 -76.7595 1177.19 -53.0402C1161.32 -29.3208 1145.17 -5.87096 1128.8 17.579C1095.93 64.299 1062.03 110.323 1027.12 155.65L1013.96 172.632L1007.34 181.122L1000.72 189.545L987.415 206.391L973.968 223.17C965.002 234.355 955.895 245.406 946.786 256.458C942.233 262.051 937.608 267.509 933.053 273.035C928.499 278.56 923.874 284.085 919.179 289.477L905.232 305.918L901.745 309.961L898.258 314.072L891.144 322.157C881.822 333.074 872.216 343.721 862.682 354.503C857.914 359.894 853.075 365.15 848.237 370.473L840.979 378.492L833.649 386.376L818.92 402.144L804.049 417.777C784.055 438.464 763.633 458.881 742.571 478.625L726.633 493.315C724 495.741 721.224 498.099 718.52 500.525L710.338 507.668L706.282 511.239L702.084 514.676L693.688 521.617C688.066 526.199 682.587 530.983 676.824 535.296L659.604 548.638L657.398 550.323L655.264 551.94L650.852 555.107L641.957 561.508L633.134 567.91L630.928 569.527L628.722 571.077L624.168 574.177L606.166 586.441C581.76 602.411 557.069 618.044 531.667 632.397L522.132 637.923L517.365 640.618L512.526 643.246L493.314 653.758L488.476 656.386L483.638 658.947L473.889 664.001L464.14 669.055L454.321 674.041L434.612 683.744C431.338 685.361 428.065 687.047 424.721 688.596L414.759 693.313L394.835 702.679L374.769 711.709C361.392 717.774 347.873 723.434 334.354 729.229C327.594 732.194 320.763 734.889 314.004 737.652L293.582 746.008C266.187 756.79 238.721 767.369 210.97 777.207C155.564 797.107 99.518 815.369 42.8306 831.991C-13.8564 848.613 -70.8754 863.998 -128.227 878.149C-185.625 892.255 -243.308 905.216 -301.276 917.031C-417.165 940.749 -533.835 960.674 -651.289 976.801C-709.921 984.887 -768.695 992.144 -827.612 998.568C-857.069 1001.71 -886.552 1004.65 -916.057 1007.4C-930.786 1008.74 -945.587 1010.02 -960.315 1011.23C-975.045 1012.45 -989.916 1013.53 -1004.72 1014.46C-1005.18 1014.48 -1005.63 1014.33 -1005.97 1014.05C-1006.32 1013.75 -1006.53 1013.36 -1006.57 1012.92C-1006.59 1012.7 -1006.56 1012.48 -1006.49 1012.28C-1006.41 1012.07 -1006.3 1011.88 -1006.14 1011.71C-1005.99 1011.55 -1005.8 1011.41 -1005.6 1011.32C-1005.39 1011.22 -1005.16 1011.18 -1004.93 1011.17Z" fill="url(#paint0_linear_103_322)"/>
<path d="M248.256 753.084C287.581 737.99 326.598 722.042 365.306 705.241C384.613 696.751 403.754 688.035 422.728 679.096C432.263 674.559 441.727 669.976 451.119 665.349C460.583 660.699 469.905 655.915 479.297 651.198C479.506 651.1 479.747 651.079 479.971 651.141C480.197 651.204 480.388 651.345 480.507 651.535C480.608 651.724 480.627 651.942 480.561 652.143C480.494 652.344 480.347 652.513 480.15 652.613C470.758 657.398 461.437 662.182 451.973 666.832C442.51 671.482 433.046 676.063 423.582 680.578C404.513 689.608 385.349 698.368 366.089 706.859C327.428 723.794 288.388 739.809 248.967 754.904C248.722 754.991 248.45 754.985 248.21 754.883C247.97 754.783 247.782 754.596 247.687 754.365C247.629 754.246 247.599 754.117 247.597 753.987C247.595 753.856 247.621 753.726 247.675 753.606C247.728 753.486 247.807 753.377 247.907 753.287C248.007 753.198 248.126 753.129 248.256 753.084Z" fill="url(#paint1_linear_103_322)"/>
<path d="M480.861 650.389L509.893 635.093H509.965C510.058 635.044 510.161 635.013 510.267 635.003C510.372 634.991 510.48 635 510.582 635.028C510.684 635.057 510.78 635.103 510.863 635.167C510.946 635.23 511.016 635.308 511.067 635.396C511.118 635.485 511.151 635.581 511.163 635.682C511.174 635.782 511.165 635.884 511.135 635.981C511.106 636.078 511.056 636.169 510.989 636.248C510.923 636.326 510.84 636.392 510.747 636.441L481.716 651.804C481.507 651.903 481.265 651.924 481.04 651.861C480.816 651.799 480.625 651.658 480.506 651.467C480.405 651.28 480.385 651.061 480.452 650.86C480.518 650.658 480.665 650.49 480.861 650.389Z" fill="url(#paint2_linear_103_322)"/>
<path d="M511.458 634.217L534.797 621.414C534.99 621.327 535.209 621.307 535.417 621.356C535.624 621.405 535.808 621.521 535.936 621.683C536.043 621.864 536.073 622.076 536.02 622.276C535.967 622.477 535.835 622.651 535.65 622.761L512.312 635.633C512.121 635.734 511.898 635.762 511.686 635.712C511.474 635.662 511.291 635.537 511.174 635.363C511.062 635.172 511.03 634.949 511.082 634.738C511.135 634.526 511.269 634.34 511.458 634.217Z" fill="url(#paint3_linear_103_322)"/>
<path d="M536.291 620.538C554.554 610.295 572.627 599.716 590.511 588.799C608.395 577.884 626.018 566.63 643.38 555.04C660.741 543.449 677.866 531.523 694.754 519.259C711.641 506.994 728.149 494.304 744.277 481.187C744.346 481.134 744.426 481.097 744.511 481.077C744.595 481.055 744.684 481.051 744.771 481.063C744.857 481.076 744.941 481.105 745.015 481.15C745.089 481.194 745.153 481.252 745.202 481.321C745.26 481.382 745.305 481.454 745.332 481.531C745.36 481.609 745.371 481.691 745.365 481.773C745.358 481.855 745.334 481.935 745.294 482.008C745.254 482.081 745.198 482.145 745.131 482.197C728.908 495.269 712.472 508.005 695.607 520.337C678.743 532.668 661.666 544.596 644.304 556.253C626.942 567.911 609.225 579.096 591.436 590.08C573.647 601.063 555.431 611.575 537.144 621.886C537.053 621.945 536.949 621.985 536.84 622.004C536.731 622.023 536.619 622.019 536.511 621.994C536.404 621.968 536.303 621.922 536.216 621.856C536.129 621.791 536.057 621.709 536.006 621.616C535.915 621.433 535.893 621.225 535.945 621.028C535.997 620.832 536.119 620.659 536.291 620.538Z" fill="url(#paint4_linear_103_322)"/>
<path d="M745.631 480.108L770.676 459.488C770.741 459.433 770.816 459.392 770.899 459.365C770.981 459.338 771.068 459.328 771.154 459.335C771.241 459.34 771.325 459.364 771.403 459.402C771.479 459.44 771.547 459.492 771.602 459.556C771.665 459.612 771.714 459.681 771.748 459.756C771.782 459.831 771.8 459.912 771.8 459.994C771.8 460.076 771.782 460.157 771.748 460.232C771.714 460.308 771.665 460.375 771.602 460.432L746.484 481.119C746.42 481.174 746.344 481.216 746.262 481.243C746.18 481.269 746.093 481.28 746.007 481.273C745.92 481.267 745.836 481.244 745.759 481.206C745.682 481.168 745.614 481.115 745.559 481.051C745.437 480.917 745.377 480.743 745.39 480.566C745.403 480.389 745.489 480.225 745.631 480.108Z" fill="url(#paint5_linear_103_322)"/>
<path d="M772.03 458.343L792.023 441.295H792.095C792.148 441.238 792.214 441.191 792.288 441.16C792.362 441.129 792.442 441.112 792.522 441.112C792.603 441.112 792.683 441.129 792.756 441.16C792.83 441.191 792.896 441.238 792.949 441.295C793.011 441.352 793.061 441.42 793.095 441.495C793.129 441.57 793.146 441.651 793.146 441.732C793.146 441.815 793.129 441.895 793.095 441.971C793.061 442.046 793.011 442.114 792.949 442.171L772.883 459.286C772.818 459.339 772.742 459.38 772.66 459.406C772.578 459.43 772.492 459.441 772.406 459.434C772.32 459.428 772.236 459.406 772.16 459.369C772.083 459.332 772.014 459.281 771.958 459.219C771.902 459.158 771.86 459.086 771.833 459.008C771.805 458.93 771.795 458.849 771.801 458.767C771.808 458.686 771.833 458.606 771.871 458.534C771.91 458.461 771.964 458.396 772.03 458.343Z" fill="url(#paint6_linear_103_322)"/>
<path d="M793.374 440.148C824.753 412.925 855.279 384.826 885.093 356.187C914.907 327.548 944.08 298.102 972.685 268.317C972.72 268.27 972.765 268.23 972.818 268.201C972.87 268.17 972.929 268.152 972.989 268.146C973.05 268.139 973.111 268.146 973.169 268.164C973.227 268.182 973.281 268.211 973.326 268.25C973.417 268.338 973.474 268.453 973.487 268.575C973.5 268.698 973.468 268.821 973.397 268.924C944.887 298.798 915.713 328.133 885.876 356.929C856.062 385.634 825.607 413.801 794.228 441.025C794.17 441.078 794.1 441.119 794.023 441.145C793.947 441.171 793.866 441.181 793.785 441.174C793.704 441.168 793.626 441.145 793.555 441.108C793.484 441.07 793.422 441.019 793.374 440.957C793.314 440.906 793.265 440.845 793.232 440.775C793.199 440.705 793.182 440.63 793.182 440.553C793.182 440.476 793.199 440.401 793.232 440.331C793.265 440.261 793.314 440.199 793.374 440.148Z" fill="url(#paint7_linear_103_322)"/>
<path d="M973.895 267.039L996.028 243.588C996.118 243.502 996.238 243.448 996.368 243.436C996.498 243.423 996.628 243.454 996.738 243.521C996.818 243.616 996.858 243.736 996.858 243.858C996.858 243.98 996.818 244.1 996.738 244.194L974.607 267.645C974.514 267.731 974.393 267.785 974.263 267.797C974.134 267.81 974.004 267.779 973.895 267.712C973.848 267.669 973.81 267.616 973.785 267.558C973.759 267.5 973.746 267.438 973.746 267.375C973.746 267.312 973.759 267.25 973.785 267.192C973.81 267.134 973.848 267.082 973.895 267.039Z" fill="url(#paint8_linear_103_322)"/>
<path d="M997.238 242.307L1015.02 223.17C1015.05 223.122 1015.1 223.082 1015.15 223.052C1015.21 223.023 1015.26 223.004 1015.32 222.998C1015.39 222.991 1015.45 222.997 1015.51 223.015C1015.57 223.033 1015.62 223.063 1015.67 223.102C1015.72 223.135 1015.76 223.178 1015.79 223.227C1015.82 223.278 1015.84 223.332 1015.85 223.39C1015.86 223.447 1015.85 223.506 1015.83 223.561C1015.81 223.616 1015.78 223.666 1015.74 223.709L997.948 242.913C997.808 243.048 997.448 243.116 997.308 242.913C997.258 242.881 997.218 242.838 997.178 242.788C997.148 242.739 997.128 242.683 997.128 242.625C997.118 242.568 997.128 242.509 997.148 242.454C997.158 242.399 997.198 242.349 997.238 242.307Z" fill="url(#paint9_linear_103_322)"/>
<path d="M1016.24 221.89C1044.13 191.477 1071.45 160.615 1098.21 129.303C1124.96 97.9919 1150.98 66.1414 1176.26 33.7518C1176.33 33.617 1176.55 33.617 1176.69 33.6844C1176.83 33.7518 1176.83 33.9539 1176.69 34.0887C1151.45 66.5233 1125.48 98.4187 1098.78 129.775C1072.07 161.131 1044.77 192.017 1016.88 222.429C1016.84 222.477 1016.8 222.516 1016.75 222.546C1016.69 222.576 1016.63 222.594 1016.57 222.601C1016.51 222.607 1016.45 222.602 1016.39 222.583C1016.34 222.565 1016.28 222.535 1016.24 222.497C1016.1 222.294 1016.02 222.025 1016.24 221.89Z" fill="url(#paint10_linear_103_322)"/>
<path d="M355.699 700.524C374.911 692.258 394.004 683.745 412.98 674.985C431.954 666.225 450.786 657.196 469.477 647.896C506.904 629.388 543.715 609.824 579.91 589.204C580.001 589.144 580.105 589.104 580.214 589.086C580.323 589.067 580.435 589.071 580.543 589.095C580.65 589.121 580.751 589.168 580.838 589.234C580.925 589.298 580.997 589.38 581.048 589.473C581.112 589.565 581.155 589.669 581.176 589.777C581.196 589.886 581.193 589.997 581.166 590.104C581.14 590.212 581.09 590.313 581.021 590.402C580.952 590.49 580.864 590.564 580.763 590.62C544.569 611.239 507.782 630.87 470.401 649.513C451.664 658.813 432.807 667.864 413.833 676.669C394.906 685.429 375.765 693.92 356.553 702.276C356.307 702.383 356.027 702.393 355.774 702.305C355.52 702.216 355.314 702.036 355.201 701.804C355.088 701.572 355.077 701.307 355.17 701.066C355.263 700.826 355.454 700.631 355.699 700.524Z" fill="url(#paint11_linear_103_322)"/>
<path d="M582.97 587.452L609.795 571.954C609.893 571.892 610.002 571.852 610.117 571.832C610.231 571.813 610.349 571.816 610.462 571.841C610.575 571.867 610.682 571.913 610.775 571.978C610.868 572.045 610.947 572.127 611.005 572.223C611.112 572.403 611.142 572.615 611.089 572.816C611.036 573.016 610.904 573.19 610.721 573.301L583.894 588.867C583.797 588.928 583.688 588.969 583.574 588.989C583.459 589.008 583.342 589.005 583.228 588.979C583.115 588.955 583.009 588.907 582.915 588.842C582.822 588.776 582.744 588.693 582.685 588.597C582.621 588.506 582.578 588.402 582.557 588.293C582.537 588.185 582.54 588.073 582.567 587.966C582.593 587.859 582.643 587.758 582.712 587.67C582.781 587.581 582.869 587.507 582.97 587.452Z" fill="url(#paint12_linear_103_322)"/>
<path d="M612.854 570.135L658.323 542.776C658.414 542.716 658.518 542.676 658.627 542.658C658.736 542.639 658.848 542.642 658.956 542.668C659.063 542.694 659.164 542.74 659.251 542.805C659.338 542.871 659.41 542.952 659.461 543.046C659.526 543.129 659.573 543.222 659.598 543.323C659.623 543.424 659.626 543.528 659.606 543.63C659.586 543.731 659.543 543.828 659.482 543.913C659.42 543.997 659.34 544.069 659.247 544.124L613.779 571.55C613.578 571.655 613.343 571.685 613.119 571.636C612.896 571.586 612.7 571.459 612.57 571.28C612.507 571.194 612.464 571.095 612.444 570.992C612.425 570.889 612.428 570.782 612.455 570.68C612.482 570.578 612.532 570.483 612.6 570.401C612.669 570.317 612.756 570.25 612.854 570.202V570.135Z" fill="url(#paint13_linear_103_322)"/>
<path d="M661.385 540.956L687.785 524.38C696.607 518.921 705.288 513.329 713.97 507.601C731.403 496.281 748.55 484.623 765.557 472.83C799.521 449.111 832.822 424.539 865.459 399.112C865.528 399.061 865.607 399.023 865.692 399.002C865.777 398.98 865.865 398.976 865.952 398.989C866.039 399.002 866.122 399.031 866.196 399.075C866.27 399.119 866.334 399.178 866.384 399.246C866.442 399.308 866.486 399.379 866.514 399.457C866.542 399.534 866.553 399.617 866.546 399.699C866.54 399.781 866.515 399.86 866.475 399.933C866.435 400.006 866.38 400.071 866.312 400.123C833.676 425.504 800.375 450.122 766.41 473.976C749.381 485.836 732.209 497.471 714.894 508.881C706.214 514.542 697.461 520.135 688.638 525.66L662.24 542.237C662.152 542.299 662.052 542.343 661.946 542.367C661.84 542.391 661.73 542.394 661.623 542.375C661.515 542.356 661.414 542.315 661.324 542.257C661.234 542.198 661.158 542.123 661.101 542.034C660.987 541.862 660.946 541.656 660.985 541.456C661.025 541.257 661.142 541.078 661.314 540.956H661.385Z" fill="url(#paint14_linear_103_322)"/>
<path d="M868.232 396.955L892.426 377.953C892.49 377.898 892.566 377.856 892.648 377.83C892.73 377.803 892.817 377.793 892.903 377.798C892.99 377.805 893.074 377.828 893.151 377.866C893.228 377.904 893.295 377.957 893.35 378.02C893.408 378.082 893.453 378.153 893.481 378.23C893.509 378.308 893.52 378.39 893.513 378.473C893.506 378.554 893.482 378.634 893.442 378.707C893.402 378.78 893.346 378.844 893.279 378.896L869.087 397.966C869.022 398.021 868.947 398.063 868.864 398.089C868.782 398.116 868.695 398.126 868.608 398.12C868.522 398.114 868.438 398.091 868.361 398.052C868.284 398.015 868.216 397.962 868.161 397.899C868.04 397.764 867.979 397.59 867.993 397.413C868.006 397.237 868.092 397.072 868.232 396.955Z" fill="url(#paint15_linear_103_322)"/>
<path d="M895.129 375.729L935.972 342.441C936.038 342.388 936.113 342.347 936.195 342.322C936.277 342.297 936.363 342.287 936.449 342.293C936.535 342.299 936.619 342.322 936.696 342.359C936.773 342.396 936.842 342.446 936.898 342.508C936.954 342.57 936.997 342.642 937.023 342.72C937.05 342.797 937.061 342.879 937.054 342.96C937.047 343.042 937.024 343.121 936.985 343.193C936.946 343.266 936.892 343.331 936.827 343.385L895.984 376.672C895.919 376.728 895.844 376.769 895.762 376.796C895.678 376.822 895.591 376.833 895.505 376.826C895.419 376.82 895.334 376.797 895.257 376.759C895.181 376.721 895.113 376.669 895.058 376.604C895 376.544 894.956 376.472 894.928 376.394C894.9 376.316 894.889 376.234 894.895 376.153C894.902 376.07 894.926 375.991 894.966 375.918C895.006 375.845 895.062 375.781 895.129 375.729Z" fill="url(#paint16_linear_103_322)"/>
<path d="M938.674 340.218C970.408 313.803 1001.48 286.738 1031.88 259.019C1062.3 231.302 1092.04 202.933 1121.12 173.912C1121.16 173.868 1121.22 173.833 1121.28 173.808C1121.34 173.783 1121.41 173.771 1121.47 173.771C1121.54 173.771 1121.6 173.783 1121.67 173.808C1121.73 173.833 1121.78 173.868 1121.83 173.912C1121.87 173.951 1121.91 173.997 1121.94 174.05C1121.96 174.102 1121.97 174.158 1121.97 174.216C1121.97 174.273 1121.96 174.33 1121.94 174.382C1121.91 174.434 1121.87 174.482 1121.83 174.519C1092.89 203.63 1063.18 232.065 1032.67 259.828C1002.17 287.591 971.121 314.68 939.527 341.094C939.463 341.149 939.387 341.191 939.305 341.218C939.223 341.244 939.136 341.254 939.05 341.248C938.963 341.242 938.879 341.219 938.802 341.181C938.725 341.143 938.657 341.091 938.602 341.027C938.507 340.908 938.461 340.759 938.474 340.609C938.487 340.461 938.558 340.32 938.674 340.218Z" fill="url(#paint17_linear_103_322)"/>
<path d="M114.196 786.777C153.331 772.626 192.278 757.98 231.033 742.841C269.742 727.68 308.308 711.979 346.447 695.672C346.723 695.574 347.026 695.575 347.301 695.675C347.576 695.773 347.804 695.965 347.941 696.211C347.999 696.335 348.031 696.469 348.033 696.603C348.036 696.739 348.01 696.873 347.957 696.999C347.904 697.125 347.825 697.239 347.724 697.335C347.624 697.431 347.504 697.508 347.372 697.559C309.185 713.911 270.69 729.679 231.887 744.863C193.084 760.047 154.138 774.759 115.05 789C114.9 789.054 114.741 789.079 114.581 789.074C114.421 789.069 114.264 789.035 114.119 788.973C113.973 788.909 113.842 788.82 113.733 788.709C113.625 788.598 113.54 788.468 113.485 788.326C113.417 788.185 113.382 788.033 113.381 787.878C113.381 787.724 113.416 787.571 113.483 787.431C113.551 787.291 113.649 787.165 113.772 787.064C113.895 786.962 114.04 786.887 114.196 786.844V786.777Z" fill="url(#paint18_linear_103_322)"/>
<path d="M351.359 693.583L378.327 681.858C378.457 681.802 378.598 681.773 378.741 681.77C378.884 681.767 379.026 681.792 379.159 681.842C379.291 681.892 379.412 681.967 379.514 682.063C379.615 682.159 379.695 682.272 379.75 682.397C379.821 682.515 379.865 682.646 379.878 682.78C379.891 682.915 379.873 683.051 379.826 683.179C379.779 683.307 379.703 683.423 379.604 683.521C379.505 683.619 379.385 683.695 379.252 683.745L352.284 695.47C352.156 695.536 352.013 695.575 351.866 695.582C351.72 695.591 351.574 695.568 351.438 695.517C351.303 695.466 351.181 695.386 351.081 695.285C350.981 695.183 350.906 695.063 350.861 694.931C350.739 694.69 350.722 694.412 350.816 694.159C350.909 693.907 351.104 693.7 351.359 693.583Z" fill="url(#paint19_linear_103_322)"/>
<path d="M383.235 679.702C395.379 674.311 407.547 668.83 419.737 663.26L437.882 654.904L455.955 646.346C456.202 646.225 456.488 646.199 456.754 646.275C457.02 646.351 457.244 646.522 457.379 646.751C457.484 646.994 457.491 647.265 457.399 647.513C457.307 647.762 457.123 647.97 456.881 648.098L438.808 656.656L420.663 665.079C408.495 670.672 396.327 676.13 384.16 681.589C383.884 681.686 383.58 681.685 383.305 681.586C383.03 681.487 382.803 681.296 382.666 681.05C382.567 680.798 382.57 680.52 382.675 680.271C382.78 680.022 382.98 679.819 383.235 679.702Z" fill="url(#paint20_linear_103_322)"/>
<path d="M460.796 644.056C498.176 626.041 535.154 607.353 571.727 587.992C608.372 568.719 644.661 548.909 681.021 529.097C681.239 528.98 681.496 528.951 681.736 529.014C681.976 529.077 682.18 529.229 682.302 529.434C682.425 529.64 682.456 529.882 682.39 530.11C682.323 530.338 682.164 530.53 681.947 530.647C645.587 550.457 609.297 570.269 572.652 589.609C536.007 608.948 499.078 627.816 461.721 645.807C461.464 645.907 461.178 645.914 460.916 645.826C460.654 645.739 460.433 645.565 460.298 645.336C460.238 645.221 460.204 645.096 460.197 644.969C460.191 644.842 460.211 644.714 460.257 644.595C460.304 644.474 460.376 644.366 460.468 644.273C460.561 644.18 460.673 644.106 460.796 644.056Z" fill="url(#paint21_linear_103_322)"/>
<path d="M685.718 526.604L711.405 512.521C711.614 512.421 711.855 512.401 712.08 512.463C712.305 512.526 712.496 512.667 712.615 512.857C712.72 513.055 712.741 513.284 712.675 513.497C712.609 513.709 712.461 513.89 712.259 514.003L686.644 528.086C686.424 528.19 686.171 528.212 685.934 528.15C685.698 528.087 685.494 527.945 685.362 527.749C685.258 527.551 685.236 527.323 685.302 527.111C685.368 526.897 685.517 526.716 685.718 526.604Z" fill="url(#paint22_linear_103_322)"/>
<path d="M716.031 509.96L785.407 470.675C785.498 470.615 785.602 470.574 785.711 470.555C785.82 470.537 785.932 470.54 786.04 470.566C786.148 470.591 786.248 470.639 786.335 470.703C786.422 470.769 786.494 470.851 786.545 470.944C786.608 471.031 786.65 471.129 786.67 471.232C786.69 471.336 786.686 471.442 786.659 471.544C786.632 471.646 786.583 471.742 786.514 471.824C786.445 471.906 786.359 471.974 786.26 472.022L716.955 511.442C716.754 511.548 716.519 511.578 716.296 511.529C716.072 511.478 715.876 511.352 715.746 511.172C715.682 511.081 715.638 510.977 715.618 510.869C715.598 510.76 715.601 510.65 715.627 510.542C715.654 510.434 715.704 510.333 715.773 510.245C715.842 510.157 715.93 510.082 716.031 510.027V509.96Z" fill="url(#paint23_linear_103_322)"/>
<path d="M789.961 467.978C861.33 426.335 931.204 382.332 998.66 335.163C998.73 335.11 998.82 335.071 998.91 335.05C999 335.028 999.09 335.023 999.19 335.035C999.28 335.048 999.37 335.078 999.45 335.123C999.53 335.168 999.6 335.228 999.66 335.298C999.71 335.369 999.75 335.449 999.78 335.536C999.8 335.621 999.8 335.71 999.79 335.798C999.78 335.885 999.75 335.97 999.7 336.046C999.65 336.122 999.59 336.188 999.51 336.241C932.058 383.478 862.255 427.615 790.886 469.394C790.696 469.495 790.472 469.524 790.26 469.473C790.048 469.423 789.865 469.298 789.747 469.125C789.629 468.942 789.585 468.724 789.624 468.513C789.664 468.302 789.783 468.112 789.961 467.978Z" fill="url(#paint24_linear_103_322)"/>
<path d="M1003 332.131L1026.69 315.286C1026.76 315.23 1026.83 315.188 1026.91 315.161C1027 315.135 1027.08 315.124 1027.17 315.131C1027.26 315.138 1027.34 315.16 1027.42 315.198C1027.49 315.236 1027.56 315.288 1027.62 315.353C1027.74 315.487 1027.8 315.662 1027.78 315.838C1027.77 316.014 1027.69 316.179 1027.54 316.295L1003.85 333.209C1003.69 333.302 1003.51 333.339 1003.33 333.314C1003.14 333.29 1002.98 333.204 1002.85 333.074C1002.79 333.008 1002.74 332.929 1002.71 332.841C1002.68 332.753 1002.67 332.661 1002.68 332.57C1002.7 332.48 1002.73 332.392 1002.79 332.317C1002.84 332.241 1002.91 332.177 1003 332.131Z" fill="url(#paint25_linear_103_322)"/>
<path d="M1030.96 312.185C1052.36 296.686 1073.47 280.828 1094.29 264.611C1094.36 264.556 1094.43 264.514 1094.52 264.488C1094.6 264.461 1094.68 264.451 1094.77 264.458C1094.86 264.463 1094.94 264.486 1095.02 264.525C1095.1 264.563 1095.16 264.615 1095.22 264.678C1095.32 264.809 1095.37 264.968 1095.35 265.129C1095.34 265.29 1095.27 265.441 1095.15 265.555C1074.27 281.816 1053.16 297.697 1031.81 313.195C1031.74 313.249 1031.65 313.287 1031.56 313.309C1031.47 313.331 1031.38 313.336 1031.29 313.323C1031.19 313.311 1031.1 313.282 1031.02 313.236C1030.94 313.192 1030.87 313.132 1030.82 313.061C1030.76 312.996 1030.72 312.921 1030.7 312.84C1030.68 312.76 1030.67 312.675 1030.69 312.594C1030.7 312.511 1030.73 312.433 1030.78 312.363C1030.83 312.293 1030.89 312.232 1030.96 312.185Z" fill="url(#paint26_linear_103_322)"/>
<path d="M1098.42 261.31C1130.72 236.064 1162.1 209.761 1192.55 182.402C1222.87 155.045 1252.12 126.541 1279.72 96.6891C1279.83 96.5972 1279.96 96.5406 1280.1 96.5284C1280.24 96.5162 1280.39 96.549 1280.51 96.6218C1280.61 96.7218 1280.66 96.8545 1280.66 96.9924C1280.66 97.1302 1280.61 97.2629 1280.51 97.363C1252.9 127.214 1223.65 155.786 1193.33 183.211C1163.02 210.637 1131.5 236.916 1099.27 262.321C1099.21 262.372 1099.13 262.409 1099.04 262.431C1098.96 262.452 1098.87 262.456 1098.78 262.444C1098.69 262.431 1098.61 262.402 1098.54 262.357C1098.46 262.313 1098.4 262.255 1098.35 262.186C1098.29 262.131 1098.25 262.065 1098.22 261.993C1098.2 261.921 1098.18 261.843 1098.19 261.766C1098.2 261.69 1098.22 261.615 1098.26 261.548C1098.3 261.481 1098.36 261.423 1098.42 261.378V261.31Z" fill="url(#paint27_linear_103_322)"/>
<path d="M195.886 748.232C234.357 733.182 272.663 717.751 310.802 701.938C348.87 686.036 386.795 669.728 424.294 652.748C424.578 652.63 424.899 652.621 425.19 652.721C425.481 652.822 425.722 653.024 425.86 653.287C425.93 653.414 425.971 653.553 425.98 653.696C425.989 653.839 425.966 653.982 425.912 654.116C425.858 654.249 425.775 654.371 425.668 654.472C425.561 654.573 425.431 654.651 425.29 654.702C387.721 671.773 349.866 688.215 311.727 704.027C273.587 719.84 235.306 735.317 196.882 750.456C196.578 750.548 196.249 750.529 195.958 750.403C195.668 750.277 195.439 750.052 195.314 749.774C195.189 749.495 195.179 749.183 195.285 748.898C195.391 748.612 195.605 748.375 195.886 748.232Z" fill="url(#paint28_linear_103_322)"/>
<path d="M430.767 649.85L443.29 644.055L455.814 638.327C455.946 638.227 456.101 638.156 456.266 638.12C456.431 638.083 456.603 638.083 456.768 638.118C456.934 638.153 457.089 638.222 457.223 638.32C457.356 638.419 457.465 638.545 457.541 638.688C457.616 638.832 457.657 638.99 457.661 639.15C457.664 639.31 457.629 639.47 457.559 639.616C457.489 639.762 457.385 639.892 457.256 639.995C457.126 640.098 456.974 640.173 456.81 640.214L444.286 646.009L431.763 651.804C431.489 651.918 431.179 651.926 430.899 651.824C430.62 651.724 430.393 651.523 430.269 651.265C430.197 651.142 430.153 651.007 430.139 650.867C430.125 650.727 430.142 650.587 430.189 650.453C430.236 650.321 430.311 650.198 430.411 650.094C430.51 649.99 430.632 649.907 430.767 649.85Z" fill="url(#paint29_linear_103_322)"/>
<path d="M462.289 635.294L558.49 589.271C558.747 589.172 559.034 589.165 559.296 589.252C559.559 589.339 559.778 589.513 559.914 589.742C560.045 589.986 560.074 590.267 559.995 590.53C559.916 590.792 559.734 591.017 559.486 591.158L463.285 637.181C463.155 637.25 463.012 637.291 462.865 637.305C462.717 637.318 462.569 637.302 462.428 637.257C462.288 637.213 462.158 637.142 462.048 637.047C461.938 636.953 461.85 636.838 461.79 636.71C461.664 636.459 461.646 636.172 461.739 635.907C461.832 635.644 462.028 635.424 462.289 635.294Z" fill="url(#paint30_linear_103_322)"/>
<path d="M564.898 586.105C601.898 568.113 638.829 549.986 676.256 532.533L704.362 519.663L732.468 506.793L788.681 481.119C788.907 481.012 789.17 480.994 789.41 481.07C789.65 481.145 789.848 481.309 789.961 481.523C790.075 481.738 790.093 481.986 790.013 482.213C789.933 482.441 789.761 482.629 789.535 482.736L733.322 508.477L705.216 521.348C695.824 525.66 686.431 529.905 677.109 534.286C639.824 551.739 602.894 569.865 565.894 587.924C565.637 588.048 565.34 588.075 565.063 588C564.786 587.926 564.549 587.754 564.399 587.519C564.327 587.397 564.283 587.262 564.269 587.122C564.255 586.982 564.272 586.841 564.319 586.708C564.366 586.575 564.442 586.452 564.542 586.348C564.642 586.245 564.763 586.162 564.898 586.105Z" fill="url(#paint31_linear_103_322)"/>
<path d="M795.155 478.154L820.202 466.631C820.314 466.574 820.436 466.539 820.562 466.529C820.688 466.518 820.815 466.533 820.935 466.57C821.055 466.608 821.165 466.669 821.26 466.749C821.354 466.829 821.43 466.927 821.483 467.036C821.586 467.252 821.599 467.496 821.52 467.721C821.44 467.946 821.275 468.134 821.056 468.248L796.01 479.771C795.783 479.878 795.52 479.896 795.28 479.82C795.04 479.745 794.842 479.582 794.729 479.367C794.615 479.153 794.597 478.904 794.677 478.677C794.757 478.45 794.929 478.261 795.155 478.154Z" fill="url(#paint32_linear_103_322)"/>
<path d="M826.675 463.6C858.909 448.707 891.142 433.546 923.02 417.912C923.229 417.814 923.47 417.793 923.694 417.856C923.919 417.918 924.11 418.059 924.229 418.25C924.334 418.448 924.355 418.676 924.289 418.888C924.223 419.101 924.075 419.282 923.873 419.395C891.924 435.096 859.763 450.257 827.458 465.217C827.352 465.273 827.234 465.307 827.114 465.316C826.993 465.327 826.871 465.312 826.757 465.274C826.642 465.235 826.538 465.174 826.45 465.095C826.362 465.015 826.294 464.919 826.249 464.812C826.188 464.707 826.152 464.591 826.141 464.471C826.129 464.352 826.144 464.232 826.184 464.118C826.224 464.004 826.289 463.9 826.373 463.811C826.457 463.721 826.56 463.649 826.675 463.6Z" fill="url(#paint33_linear_103_322)"/>
<path d="M929.423 414.813C966.352 396.618 1002.93 377.886 1038.93 358.075C1074.94 338.263 1110.3 317.509 1144.67 295.34C1144.75 295.274 1144.85 295.225 1144.95 295.196C1145.06 295.167 1145.17 295.159 1145.27 295.172C1145.38 295.184 1145.48 295.217 1145.57 295.269C1145.67 295.322 1145.75 295.392 1145.81 295.474C1145.92 295.646 1145.97 295.853 1145.93 296.053C1145.89 296.253 1145.77 296.431 1145.6 296.552C1111.15 318.789 1075.79 339.612 1039.79 359.422C1003.78 379.234 967.207 398.101 930.206 416.295C929.998 416.393 929.758 416.409 929.538 416.34C929.318 416.271 929.136 416.121 929.032 415.924C928.928 415.728 928.911 415.5 928.985 415.292C929.058 415.084 929.216 414.911 929.423 414.813Z" fill="url(#paint34_linear_103_322)"/>
<path d="M276.577 707.33C314.527 691.741 352.287 675.816 389.856 659.554C408.642 651.4 427.355 643.18 445.998 634.757L501.997 609.554C502.291 609.434 502.623 609.423 502.926 609.522C503.23 609.622 503.482 609.825 503.634 610.094C503.704 610.235 503.743 610.387 503.748 610.543C503.754 610.699 503.726 610.854 503.666 610.999C503.606 611.144 503.515 611.276 503.4 611.387C503.284 611.498 503.146 611.585 502.994 611.643L447.065 636.913C428.422 645.336 409.637 653.556 390.853 661.778C353.282 678.085 315.546 694.032 277.645 709.62C277.491 709.689 277.323 709.727 277.154 709.732C276.984 709.738 276.815 709.712 276.657 709.656C276.498 709.6 276.352 709.513 276.229 709.404C276.105 709.294 276.006 709.161 275.937 709.014C275.79 708.71 275.775 708.363 275.894 708.049C276.014 707.733 276.259 707.476 276.577 707.33Z" fill="url(#paint35_linear_103_322)"/>
<path d="M510.107 605.915L533.589 595.269C533.731 595.17 533.893 595.103 534.066 595.072C534.238 595.039 534.415 595.043 534.586 595.082C534.757 595.122 534.917 595.196 535.054 595.3C535.191 595.403 535.303 595.534 535.382 595.683C535.46 595.831 535.503 595.994 535.509 596.161C535.514 596.327 535.481 596.493 535.412 596.645C535.343 596.799 535.24 596.935 535.109 597.047C534.979 597.158 534.824 597.241 534.656 597.289L511.103 607.937C510.964 608.004 510.812 608.043 510.656 608.052C510.5 608.061 510.344 608.04 510.197 607.989C510.05 607.939 509.916 607.86 509.803 607.758C509.689 607.656 509.599 607.533 509.538 607.398C509.455 607.268 509.404 607.122 509.388 606.972C509.373 606.821 509.393 606.669 509.447 606.527C509.502 606.384 509.59 606.255 509.704 606.15C509.818 606.044 509.956 605.964 510.107 605.915Z" fill="url(#paint36_linear_103_322)"/>
<path d="M541.699 591.563C561.979 582.466 582.329 573.369 602.751 564.541C623.172 555.714 643.736 547.021 664.442 538.733C664.726 538.64 665.037 538.65 665.314 538.763C665.59 538.875 665.812 539.081 665.937 539.339C666.035 539.608 666.023 539.902 665.905 540.164C665.787 540.426 665.57 540.636 665.297 540.755C644.662 548.975 624.098 557.668 603.747 566.563C583.397 575.458 563.046 584.487 542.767 593.651C542.473 593.772 542.141 593.783 541.838 593.684C541.534 593.584 541.282 593.38 541.13 593.112C541.003 592.834 540.991 592.519 541.096 592.232C541.201 591.945 541.417 591.707 541.699 591.563Z" fill="url(#paint37_linear_103_322)"/>
<path d="M672.697 535.498C691.837 528.019 711.119 520.876 730.403 513.935C749.687 506.995 769.111 500.189 788.537 493.518C827.459 480.175 866.452 467.372 905.445 454.368C905.697 454.317 905.961 454.354 906.187 454.474C906.413 454.593 906.585 454.785 906.672 455.016C906.759 455.247 906.755 455.499 906.66 455.726C906.565 455.955 906.386 456.142 906.157 456.254C867.163 469.26 828.17 482.13 789.32 495.472C769.87 502.166 750.493 508.972 731.185 515.89C711.903 522.897 692.691 530.041 673.621 537.453C673.355 537.532 673.068 537.515 672.814 537.407C672.558 537.298 672.355 537.106 672.241 536.865C672.127 536.624 672.11 536.352 672.194 536.1C672.278 535.848 672.456 535.634 672.697 535.498Z" fill="url(#paint38_linear_103_322)"/>
<path d="M913.913 451.536L938.462 443.316C938.592 443.263 938.733 443.236 938.874 443.239C939.016 443.241 939.155 443.272 939.283 443.329C939.411 443.387 939.524 443.469 939.616 443.572C939.707 443.674 939.775 443.793 939.814 443.922C939.858 444.042 939.877 444.169 939.868 444.295C939.86 444.421 939.825 444.544 939.765 444.657C939.705 444.77 939.622 444.872 939.521 444.953C939.419 445.035 939.301 445.097 939.174 445.135L914.625 453.424C914.36 453.511 914.071 453.496 913.818 453.382C913.565 453.269 913.37 453.065 913.273 452.817C913.199 452.566 913.222 452.299 913.34 452.063C913.458 451.828 913.661 451.641 913.913 451.536Z" fill="url(#paint39_linear_103_322)"/>
<path d="M946.929 440.418C989.196 426.066 1031.32 411.241 1072.73 394.799C1072.98 394.711 1073.25 394.719 1073.49 394.819C1073.73 394.92 1073.92 395.106 1074.01 395.338C1074.11 395.562 1074.11 395.813 1074.02 396.039C1073.93 396.265 1073.75 396.448 1073.52 396.551C1032.03 412.993 989.907 427.885 947.641 442.306C947.376 442.362 947.099 442.334 946.854 442.224C946.609 442.113 946.41 441.928 946.289 441.699C946.215 441.448 946.238 441.18 946.356 440.945C946.474 440.71 946.677 440.523 946.929 440.418Z" fill="url(#paint40_linear_103_322)"/>
<path d="M1080.98 391.497C1119.06 376.201 1156.48 359.556 1192.56 340.622C1228.63 321.687 1263.57 300.528 1296.09 276.471C1296.29 276.346 1296.52 276.291 1296.76 276.316C1296.99 276.341 1297.21 276.444 1297.37 276.606C1297.51 276.794 1297.57 277.027 1297.53 277.254C1297.49 277.481 1297.36 277.684 1297.16 277.819C1264.56 301.942 1229.7 323.237 1193.49 342.172C1157.26 361.106 1119.84 377.885 1081.77 393.249C1081.52 393.337 1081.25 393.33 1081.01 393.229C1080.77 393.128 1080.58 392.941 1080.49 392.71C1080.39 392.486 1080.39 392.235 1080.48 392.009C1080.57 391.783 1080.75 391.6 1080.98 391.497Z" fill="url(#paint41_linear_103_322)"/>
<path d="M198.235 730.847L346.38 669.527H346.452C346.619 669.449 346.801 669.405 346.987 669.398C347.172 669.389 347.358 669.419 347.531 669.481C347.705 669.545 347.863 669.641 347.995 669.765C348.128 669.889 348.232 670.037 348.301 670.2C348.425 670.533 348.412 670.896 348.267 671.22C348.122 671.544 347.855 671.805 347.518 671.953L199.373 733.408C199.034 733.475 198.68 733.428 198.373 733.276C198.066 733.123 197.824 732.874 197.69 732.572C197.555 732.269 197.536 731.931 197.635 731.617C197.735 731.301 197.947 731.03 198.235 730.847Z" fill="url(#paint42_linear_103_322)"/>
<path d="M356.27 665.349L412.34 641.427L426.357 635.43L440.374 629.366L468.41 617.304C505.766 601.265 543.194 585.363 581.119 570.403C581.44 570.278 581.801 570.279 582.121 570.405C582.441 570.531 582.695 570.774 582.827 571.077C582.959 571.381 582.959 571.722 582.825 572.025C582.692 572.329 582.437 572.569 582.116 572.694C544.261 587.654 506.833 603.557 469.477 619.594L441.513 631.724L427.495 637.788L413.478 643.786L357.408 667.774C357.067 667.912 356.684 667.918 356.339 667.792C355.994 667.667 355.713 667.419 355.557 667.101C355.412 666.779 355.405 666.415 355.538 666.088C355.671 665.761 355.934 665.496 356.27 665.349Z" fill="url(#paint43_linear_103_322)"/>
<path d="M591.081 566.494L613.637 557.937C613.79 557.872 613.956 557.838 614.124 557.837C614.292 557.837 614.458 557.869 614.611 557.933C614.765 557.996 614.905 558.089 615.018 558.206C615.132 558.322 615.219 558.461 615.274 558.611C615.343 558.761 615.38 558.923 615.381 559.086C615.383 559.25 615.349 559.412 615.283 559.563C615.216 559.714 615.118 559.851 614.994 559.965C614.871 560.08 614.723 560.169 614.562 560.228L592.077 568.786C591.919 568.851 591.748 568.886 591.574 568.887C591.402 568.888 591.23 568.857 591.071 568.795C590.911 568.731 590.767 568.638 590.646 568.521C590.526 568.404 590.432 568.265 590.369 568.112C590.249 567.807 590.255 567.47 590.387 567.17C590.519 566.869 590.767 566.628 591.081 566.494Z" fill="url(#paint44_linear_103_322)"/>
<path d="M623.669 554.232C636.264 549.65 648.929 545.202 661.666 541.025C674.403 536.847 687.211 532.871 700.09 529.097C725.895 521.55 751.867 514.632 778.004 508.343C778.168 508.303 778.338 508.294 778.505 508.316C778.672 508.339 778.833 508.392 778.978 508.474C779.125 508.555 779.252 508.663 779.353 508.79C779.454 508.918 779.528 509.064 779.57 509.218C779.612 509.374 779.622 509.535 779.598 509.693C779.574 509.851 779.518 510.004 779.432 510.141C779.346 510.279 779.233 510.4 779.098 510.495C778.963 510.591 778.808 510.661 778.645 510.701C752.507 516.945 726.583 523.841 700.872 531.388C687.993 535.162 675.185 539.07 662.52 543.315C649.854 547.561 637.188 551.94 624.594 556.523C624.431 556.587 624.256 556.618 624.08 556.616C623.903 556.612 623.73 556.575 623.569 556.505C623.409 556.436 623.266 556.335 623.148 556.211C623.031 556.086 622.942 555.94 622.887 555.781C622.791 555.477 622.818 555.15 622.963 554.864C623.107 554.578 623.359 554.352 623.669 554.232Z" fill="url(#paint45_linear_103_322)"/>
<path d="M788.468 505.916C828.314 496.482 868.517 488.397 908.719 480.647C948.922 472.898 989.196 465.553 1029.33 457.535C1029.48 457.494 1029.63 457.484 1029.79 457.503C1029.94 457.522 1030.09 457.572 1030.22 457.647C1030.36 457.723 1030.47 457.824 1030.56 457.943C1030.65 458.063 1030.72 458.199 1030.75 458.343C1030.81 458.638 1030.75 458.944 1030.58 459.196C1030.4 459.448 1030.13 459.626 1029.82 459.691C989.696 467.777 949.42 475.122 909.218 482.871C869.015 490.62 828.883 498.774 789.108 508.207C788.788 508.27 788.454 508.214 788.176 508.051C787.899 507.888 787.697 507.63 787.613 507.332C787.559 507.186 787.539 507.031 787.553 506.877C787.568 506.723 787.618 506.574 787.699 506.439C787.78 506.305 787.89 506.189 788.023 506.099C788.155 506.008 788.306 505.947 788.468 505.916Z" fill="url(#paint46_linear_103_322)"/>
<path d="M1039.86 455.378L1063.55 450.391C1063.69 450.352 1063.84 450.341 1063.99 450.361C1064.14 450.381 1064.29 450.431 1064.41 450.507C1064.54 450.584 1064.65 450.685 1064.73 450.805C1064.82 450.924 1064.87 451.058 1064.9 451.2C1064.94 451.342 1064.95 451.49 1064.93 451.636C1064.91 451.782 1064.86 451.922 1064.78 452.048C1064.7 452.175 1064.59 452.284 1064.47 452.371C1064.34 452.456 1064.2 452.516 1064.04 452.548L1040.36 457.534C1040.06 457.596 1039.73 457.548 1039.47 457.397C1039.2 457.247 1039.01 457.007 1038.93 456.726C1038.86 456.431 1038.92 456.124 1039.1 455.872C1039.27 455.62 1039.54 455.443 1039.86 455.378Z" fill="url(#paint47_linear_103_322)"/>
<path d="M1074.01 448.101C1100.27 442.238 1126.31 435.837 1152.07 428.425C1177.86 421.082 1203.22 412.467 1228.06 402.616C1228.19 402.56 1228.34 402.531 1228.48 402.528C1228.62 402.525 1228.76 402.55 1228.9 402.6C1229.03 402.65 1229.15 402.725 1229.25 402.821C1229.35 402.916 1229.43 403.03 1229.49 403.155C1229.61 403.415 1229.61 403.708 1229.51 403.973C1229.4 404.238 1229.19 404.452 1228.92 404.571C1204.04 414.463 1178.62 423.1 1152.78 430.445C1126.95 437.926 1100.84 444.395 1074.58 450.19C1074.43 450.23 1074.28 450.241 1074.12 450.221C1073.97 450.202 1073.82 450.153 1073.69 450.077C1073.55 450.001 1073.44 449.9 1073.35 449.781C1073.26 449.661 1073.19 449.525 1073.16 449.381C1073.12 449.243 1073.11 449.099 1073.13 448.957C1073.15 448.815 1073.2 448.68 1073.28 448.558C1073.36 448.438 1073.47 448.334 1073.6 448.255C1073.72 448.177 1073.86 448.124 1074.01 448.101Z" fill="url(#paint48_linear_103_322)"/>
<path d="M251.673 700.456L424.296 628.354C424.468 628.275 424.655 628.231 424.846 628.222C425.037 628.214 425.228 628.242 425.407 628.305C425.586 628.367 425.751 628.464 425.89 628.588C426.029 628.713 426.14 628.862 426.217 629.028C426.299 629.2 426.344 629.386 426.349 629.575C426.354 629.764 426.319 629.952 426.246 630.127C426.173 630.304 426.064 630.464 425.924 630.599C425.785 630.735 425.619 630.842 425.434 630.915L252.883 703.084C252.701 703.162 252.504 703.204 252.305 703.209C252.106 703.213 251.907 703.18 251.722 703.112C251.536 703.042 251.367 702.938 251.223 702.807C251.081 702.675 250.967 702.517 250.89 702.342C250.808 702.17 250.763 701.984 250.758 701.796C250.753 701.606 250.788 701.419 250.861 701.242C250.934 701.067 251.043 700.907 251.183 700.772C251.323 700.636 251.49 700.529 251.673 700.456Z" fill="url(#paint49_linear_103_322)"/>
<path d="M435.748 623.502C473.104 608.071 510.603 592.978 548.6 578.961C586.597 564.946 625.163 552.209 664.512 542.034C664.694 541.986 664.884 541.972 665.072 541.992C665.26 542.013 665.442 542.069 665.608 542.157C665.773 542.244 665.919 542.362 666.036 542.503C666.153 542.644 666.24 542.805 666.291 542.978C666.342 543.15 666.357 543.331 666.335 543.509C666.313 543.686 666.254 543.859 666.161 544.015C666.069 544.171 665.945 544.31 665.796 544.421C665.648 544.531 665.476 544.614 665.294 544.662H665.223C626.017 554.837 587.593 567.641 549.667 581.589C511.742 595.537 474.243 610.632 436.957 626.13C436.598 626.267 436.197 626.266 435.839 626.127C435.481 625.989 435.193 625.725 435.037 625.389C434.952 625.221 434.904 625.039 434.894 624.853C434.884 624.667 434.913 624.482 434.979 624.307C435.045 624.131 435.147 623.969 435.279 623.832C435.411 623.694 435.57 623.582 435.748 623.502Z" fill="url(#paint50_linear_103_322)"/>
<path d="M676.681 539.003L698.525 534.016C698.903 533.934 699.299 533.993 699.631 534.182C699.962 534.37 700.204 534.673 700.305 535.027C700.372 535.374 700.299 535.732 700.102 536.031C699.904 536.33 699.596 536.549 699.238 536.644H699.166L677.392 541.63C677.025 541.716 676.637 541.666 676.307 541.491C675.977 541.315 675.729 541.028 675.613 540.687C675.526 540.33 675.589 539.955 675.788 539.641C675.988 539.327 676.308 539.098 676.681 539.003Z" fill="url(#paint51_linear_103_322)"/>
<path d="M710.837 531.388C741.647 525.054 772.671 520.135 803.909 516.294C835.146 512.453 866.525 509.69 897.904 507.668C898.266 507.665 898.618 507.786 898.892 508.009C899.167 508.232 899.347 508.543 899.399 508.882C899.408 509.059 899.381 509.236 899.318 509.403C899.255 509.57 899.158 509.723 899.033 509.855C898.907 509.986 898.756 510.093 898.587 510.168C898.416 510.244 898.233 510.288 898.046 510.296C866.738 512.318 835.43 515.081 804.264 518.922C773.099 522.763 742.145 527.749 711.478 534.016C711.109 534.096 710.723 534.035 710.403 533.845C710.082 533.656 709.855 533.354 709.77 533.005C709.685 532.657 709.75 532.291 709.95 531.987C710.15 531.684 710.469 531.468 710.837 531.388Z" fill="url(#paint52_linear_103_322)"/>
<path d="M910.425 506.927C951.125 504.569 991.827 503.221 1032.52 501.604C1073.23 499.987 1113.85 497.898 1154.27 493.316C1154.63 493.295 1154.98 493.401 1155.25 493.614C1155.53 493.826 1155.71 494.128 1155.77 494.461C1155.79 494.629 1155.77 494.8 1155.72 494.963C1155.67 495.125 1155.59 495.276 1155.47 495.408C1155.36 495.54 1155.22 495.649 1155.07 495.729C1154.91 495.81 1154.74 495.86 1154.56 495.877C1114.08 500.458 1073.37 502.48 1032.67 504.165C991.967 505.849 951.267 507.13 910.639 509.555C910.435 509.613 910.22 509.625 910.01 509.594C909.801 509.563 909.602 509.487 909.427 509.373C909.252 509.259 909.107 509.11 909.001 508.936C908.895 508.761 908.832 508.567 908.816 508.366C908.799 508.166 908.831 507.964 908.907 507.778C908.984 507.59 909.103 507.422 909.257 507.283C909.412 507.145 909.596 507.042 909.798 506.98C910 506.919 910.214 506.901 910.425 506.927Z" fill="url(#paint53_linear_103_322)"/>
<path d="M37.9885 781.924L259.638 688.53C260.044 688.369 260.501 688.363 260.912 688.514C261.323 688.664 261.656 688.96 261.843 689.338C261.991 689.715 261.986 690.132 261.829 690.505C261.671 690.879 261.371 691.183 260.989 691.359L39.3405 784.822C38.9337 784.983 38.4769 784.989 38.0658 784.838C37.6547 784.688 37.321 784.392 37.1346 784.013C37.0409 783.824 36.9886 783.618 36.9809 783.409C36.9733 783.2 37.0106 782.992 37.0903 782.797C37.1701 782.601 37.2909 782.423 37.4452 782.274C37.5996 782.123 37.7844 782.005 37.9885 781.924Z" fill="url(#paint54_linear_103_322)"/>
<path d="M272.805 683.005L291.662 675.121C291.862 675.031 292.079 674.982 292.3 674.975C292.521 674.967 292.741 675.003 292.947 675.078C293.153 675.154 293.341 675.268 293.499 675.414C293.657 675.56 293.783 675.735 293.868 675.929C294.035 676.305 294.039 676.727 293.879 677.105C293.718 677.484 293.408 677.787 293.013 677.95L274.086 685.834C273.896 685.924 273.688 685.976 273.476 685.987C273.263 685.998 273.05 685.968 272.85 685.899C272.65 685.83 272.468 685.722 272.313 685.583C272.159 685.445 272.036 685.278 271.952 685.094C271.858 684.903 271.806 684.698 271.798 684.489C271.79 684.28 271.827 684.071 271.907 683.876C271.987 683.681 272.108 683.503 272.262 683.353C272.416 683.204 272.601 683.084 272.805 683.005Z" fill="url(#paint55_linear_103_322)"/>
<path d="M304.824 669.593L403.73 628.893L416.111 623.772L428.492 618.852L453.396 609.015C470.047 602.613 486.768 596.346 503.632 590.349C503.828 590.274 504.037 590.237 504.248 590.24C504.46 590.244 504.668 590.288 504.861 590.369C505.053 590.452 505.227 590.569 505.37 590.717C505.514 590.864 505.625 591.036 505.695 591.225C505.776 591.415 505.816 591.619 505.813 591.824C505.81 592.028 505.764 592.231 505.678 592.419C505.592 592.606 505.468 592.777 505.311 592.919C505.155 593.061 504.971 593.173 504.77 593.247C487.978 599.222 471.279 605.443 454.677 611.912C446.351 615.079 438.026 618.381 429.772 621.683L417.391 626.602L405.01 631.723L306.176 672.424C305.98 672.515 305.767 672.568 305.55 672.579C305.331 672.591 305.113 672.561 304.908 672.493C304.703 672.424 304.514 672.316 304.353 672.177C304.192 672.038 304.062 671.87 303.97 671.682C303.8 671.297 303.794 670.864 303.953 670.475C304.112 670.086 304.424 669.77 304.824 669.593Z" fill="url(#paint56_linear_103_322)"/>
<path d="M517.081 585.566C536.151 579.03 555.22 572.763 574.575 566.968C593.928 561.172 613.354 555.916 632.993 551.334C642.812 549.043 652.703 546.887 662.665 545C672.626 543.113 682.517 541.362 692.55 539.879C712.545 536.779 732.681 534.488 752.818 532.803C753.029 532.785 753.242 532.808 753.444 532.869C753.647 532.931 753.833 533.031 753.993 533.164C754.153 533.297 754.282 533.458 754.374 533.64C754.466 533.821 754.517 534.018 754.526 534.218C754.546 534.414 754.524 534.61 754.463 534.797C754.402 534.984 754.303 535.157 754.17 535.308C754.038 535.459 753.876 535.583 753.693 535.673C753.51 535.764 753.308 535.819 753.103 535.836C733.037 537.453 712.972 539.812 693.048 542.843C683.086 544.393 673.195 546.079 663.305 547.965C653.414 549.852 643.595 552.008 633.776 554.232C614.208 558.814 594.783 564.138 575.499 569.866C556.217 575.592 537.218 581.927 518.22 588.464C517.823 588.597 517.386 588.58 517.002 588.417C516.618 588.254 516.315 587.957 516.156 587.587C516.028 587.202 516.051 586.785 516.221 586.413C516.391 586.042 516.696 585.742 517.081 585.566Z" fill="url(#paint57_linear_103_322)"/>
<path d="M767.189 531.793L787.896 530.647C788.306 530.646 788.702 530.79 789.005 531.053C789.309 531.315 789.497 531.675 789.532 532.063C789.552 532.262 789.528 532.464 789.463 532.656C789.397 532.847 789.292 533.023 789.151 533.175C789.011 533.326 788.84 533.449 788.649 533.536C788.458 533.623 788.25 533.671 788.038 533.68L767.403 534.825C766.98 534.844 766.567 534.708 766.248 534.443C765.929 534.18 765.731 533.81 765.695 533.411C765.675 533.21 765.699 533.008 765.764 532.817C765.83 532.626 765.936 532.449 766.075 532.298C766.216 532.147 766.387 532.024 766.578 531.938C766.77 531.85 766.978 531.801 767.189 531.793Z" fill="url(#paint58_linear_103_322)"/>
<path d="M802.27 530.175C838.274 529.164 874.279 530.242 910.141 532.601C946.003 534.959 981.793 538.733 1017.52 542.776C1017.92 542.826 1018.29 543.023 1018.54 543.326C1018.79 543.627 1018.91 544.011 1018.87 544.393C1018.85 544.592 1018.79 544.787 1018.69 544.962C1018.59 545.138 1018.45 545.29 1018.28 545.412C1018.12 545.533 1017.92 545.618 1017.72 545.664C1017.51 545.709 1017.3 545.712 1017.09 545.673C981.442 541.698 945.718 537.925 909.926 535.566C874.136 533.208 838.203 532.197 802.341 533.208C801.918 533.208 801.512 533.054 801.207 532.778C800.903 532.501 800.722 532.124 800.704 531.725C800.694 531.525 800.727 531.324 800.802 531.137C800.876 530.949 800.99 530.778 801.136 530.633C801.282 530.488 801.458 530.373 801.653 530.294C801.848 530.216 802.057 530.175 802.27 530.175Z" fill="url(#paint59_linear_103_322)"/>
<path d="M1031.74 544.393C1051.81 546.684 1071.88 548.975 1091.94 551.064C1112.01 553.153 1132.14 555.04 1152.28 556.253C1172.42 557.465 1192.62 558.207 1212.76 557.87C1232.92 557.568 1253.03 556.015 1272.97 553.22C1273.18 553.157 1273.41 553.138 1273.63 553.165C1273.85 553.192 1274.06 553.263 1274.25 553.374C1274.44 553.486 1274.61 553.635 1274.73 553.812C1274.86 553.988 1274.94 554.188 1274.98 554.398C1275.01 554.607 1275 554.821 1274.94 555.026C1274.88 555.23 1274.78 555.421 1274.63 555.584C1274.49 555.748 1274.31 555.879 1274.11 555.971C1273.91 556.063 1273.69 556.113 1273.46 556.118C1253.39 558.946 1233.13 560.5 1212.83 560.767C1192.55 561.171 1172.28 560.498 1152.07 559.218C1131.86 557.937 1111.72 556.118 1091.65 554.029C1071.6 551.94 1051.46 549.648 1031.39 547.358C1031.18 547.333 1030.98 547.269 1030.8 547.171C1030.62 547.072 1030.47 546.941 1030.34 546.784C1030.21 546.627 1030.12 546.448 1030.07 546.258C1030.02 546.066 1030.01 545.868 1030.04 545.673C1030.05 545.481 1030.11 545.293 1030.21 545.123C1030.31 544.953 1030.44 544.803 1030.6 544.683C1030.76 544.563 1030.94 544.476 1031.14 544.425C1031.34 544.375 1031.54 544.365 1031.74 544.393Z" fill="url(#paint60_linear_103_322)"/>
<path d="M91.0746 752.207C127.554 736.439 164.104 720.716 200.725 705.038C237.347 689.36 273.991 673.862 310.66 658.543C311.095 658.38 311.581 658.38 312.016 658.543C312.452 658.706 312.806 659.018 313.008 659.419C313.102 659.623 313.153 659.841 313.157 660.063C313.162 660.286 313.12 660.507 313.034 660.713C312.948 660.92 312.82 661.108 312.656 661.267C312.493 661.427 312.298 661.554 312.083 661.642C275.366 676.872 238.722 692.437 202.148 708.071C165.575 723.703 129.071 739.472 92.5692 755.24C92.144 755.425 91.6588 755.443 91.2196 755.292C90.7805 755.14 90.4213 754.831 90.2213 754.432C90.0262 754.029 90.0062 753.57 90.1662 753.154C90.3263 752.738 90.6524 752.398 91.0746 752.207Z" fill="url(#paint61_linear_103_322)"/>
<path d="M325.456 652.41L342.818 645.335C343.023 645.245 343.245 645.194 343.471 645.187C343.697 645.178 343.923 645.213 344.135 645.288C344.346 645.364 344.54 645.477 344.705 645.624C344.87 645.771 345.003 645.948 345.095 646.143C345.2 646.345 345.259 646.566 345.268 646.79C345.278 647.015 345.238 647.24 345.151 647.449C345.064 647.658 344.931 647.848 344.762 648.006C344.593 648.164 344.391 648.287 344.169 648.367L326.878 655.51C326.445 655.688 325.954 655.697 325.513 655.533C325.073 655.368 324.72 655.045 324.531 654.634C324.342 654.223 324.333 653.757 324.507 653.341C324.681 652.924 325.022 652.589 325.456 652.41Z" fill="url(#paint62_linear_103_322)"/>
<path d="M357.692 639.271L385.585 628.085L399.603 622.56C404.229 620.673 408.924 618.787 413.62 617.034C432.358 609.757 451.214 602.816 470.189 596.212C489.164 589.608 508.328 583.431 527.683 577.682C546.942 571.887 566.415 566.675 586.1 562.048C586.33 561.987 586.57 561.971 586.805 562C587.041 562.027 587.269 562.1 587.474 562.214C587.68 562.327 587.859 562.477 588.002 562.657C588.145 562.837 588.249 563.043 588.306 563.262C588.359 563.479 588.365 563.703 588.326 563.922C588.286 564.142 588.201 564.351 588.075 564.539C587.95 564.727 587.786 564.889 587.594 565.017C587.401 565.145 587.184 565.235 586.955 565.282C567.411 569.91 548.009 575.098 528.75 580.849C509.467 586.577 490.397 592.775 471.399 599.38C452.4 605.983 433.615 612.924 414.973 620.134C410.276 621.886 405.58 623.773 400.955 625.593L387.009 631.185L359.045 642.303C358.834 642.388 358.609 642.431 358.381 642.433C358.153 642.434 357.925 642.393 357.714 642.312C357.503 642.23 357.31 642.111 357.148 641.959C356.985 641.807 356.856 641.627 356.768 641.428C356.679 641.228 356.632 641.015 356.631 640.799C356.629 640.583 356.673 640.368 356.758 640.168C356.844 639.968 356.971 639.785 357.131 639.632C357.291 639.477 357.482 639.355 357.692 639.271Z" fill="url(#paint63_linear_103_322)"/>
<path d="M601.895 558.477C621.535 554.299 641.316 550.727 661.239 548.166C671.201 546.886 681.234 545.876 691.195 544.999C696.248 544.595 701.228 544.123 706.28 543.854L713.823 543.382L721.366 543.045L728.837 542.776L736.379 542.506L751.464 542.304C761.569 542.304 771.601 542.506 781.633 542.843C791.666 543.18 801.771 543.787 811.804 544.527C821.837 545.269 831.798 546.212 841.76 547.29C841.994 547.316 842.221 547.384 842.427 547.493C842.633 547.602 842.814 547.748 842.959 547.924C843.105 548.099 843.212 548.301 843.275 548.516C843.338 548.731 843.355 548.956 843.325 549.177C843.271 549.612 843.041 550.011 842.682 550.288C842.324 550.564 841.865 550.698 841.405 550.66C831.443 549.582 821.481 548.638 811.519 547.829C801.486 547.155 791.524 546.549 781.491 546.212C771.458 545.876 761.497 545.606 751.536 545.673C746.484 545.673 741.503 545.808 736.522 545.876L728.979 546.077L721.508 546.415L713.965 546.751L706.494 547.223C701.513 547.493 696.532 547.965 691.551 548.301C681.589 549.177 671.627 550.188 661.738 551.468C641.885 554.029 622.175 557.533 602.679 561.778C602.217 561.861 601.74 561.774 601.344 561.537C600.948 561.299 600.662 560.928 600.544 560.497C600.492 560.28 600.485 560.056 600.525 559.837C600.564 559.618 600.649 559.408 600.775 559.22C600.901 559.032 601.064 558.87 601.257 558.742C601.449 558.614 601.666 558.524 601.895 558.477Z" fill="url(#paint64_linear_103_322)"/>
<path d="M857.841 549.245L876.554 551.806C876.79 551.838 877.015 551.914 877.218 552.031C877.421 552.148 877.598 552.302 877.737 552.484C877.876 552.666 877.975 552.873 878.029 553.092C878.082 553.311 878.089 553.538 878.049 553.759C877.978 554.196 877.73 554.588 877.358 554.852C876.986 555.117 876.518 555.232 876.056 555.174H875.985L857.414 552.546H857.343C856.883 552.48 856.468 552.245 856.189 551.892C855.909 551.539 855.787 551.097 855.848 550.66C855.918 550.224 856.167 549.831 856.54 549.567C856.912 549.303 857.379 549.187 857.841 549.245Z" fill="url(#paint65_linear_103_322)"/>
<path d="M892.565 554.366C932.483 561.038 971.832 569.999 1010.89 580.039C1049.96 590.08 1088.74 600.929 1127.73 610.699C1128.2 610.807 1128.59 611.084 1128.84 611.47C1129.09 611.854 1129.16 612.318 1129.05 612.755C1128.94 613.193 1128.64 613.57 1128.24 613.804C1127.83 614.038 1127.34 614.109 1126.88 614.002C1087.74 604.163 1048.97 593.179 1009.97 583.275C970.978 573.369 931.7 564.272 891.925 557.668C891.495 557.557 891.124 557.297 890.887 556.939C890.65 556.582 890.563 556.154 890.643 555.739C890.724 555.323 890.966 554.952 891.322 554.698C891.678 554.444 892.122 554.326 892.565 554.366Z" fill="url(#paint66_linear_103_322)"/>
<path d="M143.23 721.817C179.377 705.914 215.595 690.213 251.884 674.715C288.245 659.217 324.676 643.987 361.463 629.432C361.691 629.333 361.938 629.279 362.188 629.273C362.439 629.267 362.69 629.31 362.922 629.398C363.155 629.486 363.367 629.619 363.544 629.786C363.721 629.955 363.861 630.155 363.953 630.375C364.122 630.824 364.106 631.316 363.908 631.753C363.71 632.191 363.345 632.541 362.887 632.734C326.17 647.289 289.738 662.518 253.449 677.949C217.16 693.38 180.943 709.148 144.796 725.051C144.342 725.248 143.825 725.266 143.359 725.102C142.892 724.937 142.513 724.604 142.305 724.176C142.098 723.746 142.079 723.257 142.252 722.814C142.426 722.373 142.777 722.014 143.23 721.817Z" fill="url(#paint67_linear_103_322)"/>
<path d="M378.041 622.896L393.909 616.764C394.383 616.604 394.902 616.62 395.364 616.807C395.825 616.994 396.195 617.34 396.399 617.775C396.568 618.223 396.552 618.716 396.354 619.152C396.156 619.59 395.791 619.94 395.332 620.134L379.465 626.198C379.002 626.38 378.482 626.383 378.017 626.206C377.551 626.03 377.178 625.688 376.974 625.254C376.806 624.806 376.822 624.315 377.019 623.877C377.217 623.44 377.582 623.09 378.041 622.896Z" fill="url(#paint68_linear_103_322)"/>
<path d="M410.632 610.497C452.542 595.134 495.306 581.59 538.925 571.078C560.769 565.822 582.827 561.374 605.028 557.87L621.749 555.511L630.145 554.501L634.272 554.029L638.471 553.558L646.938 552.749L649.002 552.547L651.137 552.412L655.334 552.075L663.731 551.469L672.198 550.997C672.661 551.053 673.087 551.26 673.405 551.584C673.722 551.907 673.91 552.325 673.935 552.766C673.96 553.206 673.822 553.641 673.544 553.996C673.265 554.35 672.865 554.6 672.412 554.703L664.016 555.107L655.619 555.714L651.421 556.05L649.357 556.186L647.294 556.388L638.898 557.264L634.77 557.668L630.573 558.139L622.247 559.15L605.668 561.509C583.539 564.945 561.623 569.393 539.92 574.581C496.445 585.093 453.823 598.571 411.983 613.867C411.756 613.964 411.51 614.014 411.26 614.015C411.011 614.016 410.765 613.967 410.537 613.872C410.308 613.776 410.104 613.637 409.937 613.462C409.768 613.286 409.642 613.081 409.564 612.856C409.461 612.636 409.407 612.398 409.406 612.157C409.404 611.916 409.455 611.678 409.555 611.457C409.655 611.235 409.802 611.036 409.988 610.871C410.174 610.706 410.393 610.579 410.632 610.497Z" fill="url(#paint69_linear_103_322)"/>
<path d="M690.201 550.39C730.163 549.607 770.114 552.382 809.528 558.679C848.948 564.946 887.728 574.447 925.653 586.307C925.943 586.347 926.22 586.448 926.464 586.601C926.708 586.755 926.913 586.957 927.065 587.194C927.218 587.431 927.313 587.697 927.344 587.973C927.375 588.25 927.341 588.528 927.246 588.791C927.149 589.053 926.993 589.292 926.789 589.49C926.584 589.689 926.336 589.842 926.062 589.94C925.788 590.037 925.494 590.076 925.202 590.053C924.91 590.032 924.626 589.948 924.372 589.811C886.661 578.086 848.095 568.585 808.887 562.385C769.715 556.068 730.001 553.27 690.272 554.029C690.02 554.039 689.768 554 689.531 553.917C689.295 553.834 689.078 553.707 688.893 553.544C688.707 553.382 688.557 553.186 688.452 552.969C688.347 552.751 688.288 552.516 688.279 552.278C688.279 551.789 688.479 551.319 688.837 550.966C689.196 550.615 689.685 550.408 690.201 550.39Z" fill="url(#paint70_linear_103_322)"/>
<path d="M942.658 591.764L958.81 597.223C959.058 597.304 959.287 597.433 959.48 597.602C959.673 597.77 959.828 597.975 959.935 598.202C960.041 598.43 960.098 598.675 960.1 598.923C960.103 599.172 960.051 599.419 959.949 599.648C959.862 599.875 959.728 600.083 959.555 600.261C959.383 600.438 959.174 600.581 958.942 600.682C958.71 600.782 958.459 600.837 958.205 600.846C957.95 600.853 957.697 600.812 957.459 600.726H957.387L941.378 595.268C941.087 595.228 940.81 595.127 940.566 594.974C940.322 594.82 940.117 594.617 939.965 594.381C939.813 594.144 939.718 593.878 939.687 593.602C939.656 593.326 939.69 593.047 939.786 592.784C939.881 592.523 940.037 592.283 940.241 592.085C940.446 591.886 940.694 591.733 940.968 591.635C941.243 591.538 941.537 591.499 941.829 591.521C942.121 591.543 942.404 591.627 942.658 591.764Z" fill="url(#paint71_linear_103_322)"/>
<path d="M975.603 603.221C996.669 610.835 1017.45 618.988 1038.07 627.411C1058.71 635.834 1079.2 644.46 1099.77 653.085C1120.34 661.71 1140.82 670.268 1161.6 678.355C1182.38 686.441 1203.3 694.055 1224.58 700.524C1224.83 700.6 1225.07 700.724 1225.27 700.888C1225.48 701.052 1225.64 701.254 1225.76 701.48C1225.88 701.706 1225.95 701.953 1225.97 702.205C1225.98 702.458 1225.95 702.711 1225.86 702.95C1225.79 703.188 1225.66 703.411 1225.5 703.603C1225.33 703.795 1225.12 703.953 1224.89 704.067C1224.66 704.18 1224.4 704.248 1224.14 704.264C1223.88 704.281 1223.62 704.246 1223.37 704.163C1201.88 697.626 1180.89 689.945 1160.04 681.858C1139.19 673.772 1118.7 665.147 1098.13 656.59C1077.57 648.031 1057.07 639.272 1036.51 630.848C1015.95 622.425 995.168 614.339 974.181 606.724C973.703 606.53 973.32 606.172 973.109 605.723C972.898 605.273 972.874 604.764 973.042 604.299C973.128 604.064 973.264 603.848 973.443 603.665C973.621 603.481 973.836 603.336 974.076 603.234C974.316 603.133 974.576 603.08 974.838 603.077C975.101 603.075 975.361 603.123 975.603 603.221Z" fill="url(#paint72_linear_103_322)"/>
<path d="M-90.1581 820.805C-45.8521 800.186 -1.42746 779.679 43.1157 759.284C87.6586 738.888 132.273 718.762 176.958 698.906C177.191 698.793 177.445 698.726 177.706 698.709C177.966 698.692 178.228 698.726 178.474 698.808C178.72 698.89 178.946 699.019 179.139 699.186C179.331 699.354 179.484 699.557 179.591 699.782C179.808 700.238 179.825 700.757 179.637 701.224C179.451 701.691 179.076 702.069 178.595 702.276C133.863 722.087 89.2482 742.19 44.7522 762.585C0.256491 782.98 -44.1443 803.466 -88.4503 824.04C-88.6729 824.154 -88.9178 824.224 -89.17 824.244C-89.4221 824.265 -89.6761 824.237 -89.9162 824.161C-90.1563 824.085 -90.3774 823.964 -90.5658 823.804C-90.7543 823.644 -90.9062 823.449 -91.0119 823.232C-91.2352 822.802 -91.2707 822.306 -91.1108 821.852C-90.9511 821.398 -90.6087 821.022 -90.1581 820.805Z" fill="url(#paint73_linear_103_322)"/>
<path d="M194.888 690.955C230.751 675.187 266.779 659.756 302.973 644.662C321.118 637.182 339.262 629.837 357.55 622.695C366.728 619.123 375.908 615.686 385.157 612.25C394.408 608.813 403.658 605.579 412.908 602.344C413.159 602.248 413.429 602.202 413.7 602.208C413.972 602.213 414.239 602.272 414.485 602.379C414.732 602.486 414.953 602.641 415.134 602.831C415.315 603.022 415.454 603.246 415.541 603.49C415.642 603.728 415.691 603.983 415.685 604.24C415.678 604.497 415.617 604.75 415.503 604.984C415.39 605.217 415.228 605.426 415.026 605.597C414.825 605.77 414.588 605.901 414.332 605.983C405.081 609.217 395.83 612.452 386.581 615.822C377.33 619.19 368.223 622.695 359.115 626.265C340.828 633.341 322.683 640.687 304.61 648.166C268.392 663.125 232.388 678.623 196.525 694.392C196.044 694.597 195.496 694.612 195.003 694.436C194.509 694.259 194.11 693.904 193.893 693.448C193.695 692.99 193.687 692.479 193.872 692.016C194.057 691.553 194.42 691.174 194.888 690.955Z" fill="url(#paint74_linear_103_322)"/>
<path d="M431.551 596.01L445.996 591.293C446.253 591.209 446.525 591.174 446.796 591.189C447.068 591.205 447.334 591.271 447.578 591.383C447.823 591.496 448.041 591.653 448.222 591.846C448.402 592.039 448.54 592.263 448.629 592.506C448.718 592.75 448.755 593.007 448.739 593.264C448.722 593.522 448.653 593.773 448.534 594.004C448.415 594.236 448.249 594.443 448.046 594.614C447.843 594.785 447.606 594.915 447.349 595L432.904 599.717C432.647 599.801 432.375 599.836 432.104 599.821C431.832 599.805 431.566 599.739 431.322 599.627C431.078 599.514 430.859 599.357 430.679 599.164C430.498 598.971 430.36 598.747 430.271 598.504C430.182 598.26 430.145 598.003 430.161 597.746C430.178 597.488 430.247 597.237 430.366 597.006C430.485 596.774 430.651 596.568 430.854 596.396C431.058 596.226 431.295 596.095 431.551 596.01Z" fill="url(#paint75_linear_103_322)"/>
<path d="M464.851 585.497C488.474 578.49 512.382 572.155 536.575 567.169L541.129 566.226L545.682 565.349L554.791 563.598L563.898 562.048L566.175 561.643L568.523 561.307L573.077 560.632C585.388 558.813 597.698 557.331 610.079 556.454C622.459 555.579 634.84 555.04 647.292 555.242C653.483 555.376 659.674 555.579 665.864 555.915C672.055 556.253 678.245 556.724 684.436 557.196C709.12 559.27 733.661 562.666 757.939 567.371C758.214 567.419 758.477 567.519 758.713 567.664C758.948 567.809 759.15 567.996 759.309 568.215C759.467 568.434 759.579 568.68 759.637 568.941C759.695 569.2 759.698 569.469 759.647 569.729C759.527 570.262 759.192 570.73 758.713 571.032C758.234 571.333 757.65 571.447 757.085 571.347C732.973 566.647 708.599 563.25 684.079 561.171L665.65 559.891C659.46 559.554 653.34 559.42 647.221 559.218C634.911 559.082 622.672 559.554 610.363 560.431C598.053 561.307 585.885 562.721 573.718 564.541L569.164 565.215L566.887 565.552L564.61 565.956L555.573 567.506L546.466 569.19L541.983 570.066L537.429 571.01C513.379 575.996 489.613 582.263 466.131 589.271H466.06C465.532 589.423 464.961 589.37 464.474 589.124C463.988 588.878 463.623 588.458 463.463 587.957C463.302 587.456 463.358 586.916 463.618 586.455C463.88 585.994 464.322 585.65 464.851 585.497Z" fill="url(#paint76_linear_103_322)"/>
<path d="M777.362 571.347C815.922 580.08 853.721 591.592 890.428 605.781C927.215 619.865 962.864 636.239 997.868 653.826C998.388 654.094 998.778 654.547 998.938 655.084C999.109 655.622 999.048 656.199 998.758 656.69C998.478 657.182 997.998 657.547 997.438 657.705C996.868 657.863 996.257 657.801 995.737 657.532C960.943 639.945 925.365 623.638 888.791 609.623C852.217 595.606 814.719 583.881 776.366 575.324C775.816 575.195 775.341 574.872 775.036 574.42C774.732 573.969 774.622 573.423 774.73 572.897C774.881 572.372 775.236 571.921 775.724 571.633C776.213 571.345 776.798 571.243 777.362 571.347Z" fill="url(#paint77_linear_103_322)"/>
<path d="M1015.24 662.721L1028.61 669.729C1028.88 669.849 1029.11 670.019 1029.3 670.231C1029.49 670.441 1029.64 670.687 1029.73 670.953C1029.81 671.218 1029.84 671.498 1029.81 671.774C1029.77 672.051 1029.68 672.318 1029.54 672.558C1029.4 672.806 1029.2 673.024 1028.97 673.199C1028.74 673.374 1028.47 673.503 1028.19 673.579C1027.9 673.655 1027.6 673.674 1027.31 673.638C1027.02 673.602 1026.73 673.51 1026.48 673.368L1013.11 666.427C1012.59 666.144 1012.22 665.683 1012.06 665.142C1011.9 664.601 1011.96 664.023 1012.25 663.529C1012.54 663.048 1013.01 662.693 1013.57 662.542C1014.13 662.39 1014.73 662.455 1015.24 662.721Z" fill="url(#paint78_linear_103_322)"/>
<path d="M1045.91 678.894C1067.4 690.484 1088.74 702.276 1110.09 714.001C1131.43 725.726 1152.85 737.451 1174.56 748.57C1196.26 759.688 1218.24 770.268 1240.8 779.499C1263.36 788.731 1286.62 796.682 1310.53 801.939C1311.12 802.082 1311.63 802.436 1311.95 802.926C1312.26 803.416 1312.37 804.004 1312.24 804.567C1312.17 804.847 1312.05 805.111 1311.87 805.345C1311.69 805.579 1311.47 805.777 1311.21 805.928C1310.95 806.079 1310.67 806.179 1310.37 806.223C1310.07 806.267 1309.76 806.253 1309.47 806.184C1285.2 800.792 1261.79 792.774 1239.02 783.475C1216.25 774.176 1194.12 763.462 1172.42 752.343C1150.72 741.225 1129.23 729.432 1107.88 717.707C1086.53 705.982 1065.19 694.123 1043.7 682.533C1043.2 682.263 1042.82 681.815 1042.66 681.284C1042.5 680.753 1042.57 680.185 1042.85 679.702C1043.15 679.217 1043.64 678.861 1044.21 678.709C1044.78 678.558 1045.39 678.625 1045.91 678.894Z" fill="url(#paint79_linear_103_322)"/>
<path d="M-63.7586 802.948C-15.6576 779.902 32.5856 757.126 80.9716 734.62C129.356 712.113 178.026 690.101 226.982 668.583C227.482 668.368 228.051 668.351 228.565 668.534C229.079 668.718 229.495 669.086 229.722 669.56C229.948 670.034 229.966 670.573 229.773 671.06C229.58 671.546 229.189 671.94 228.689 672.154C179.806 693.583 131.207 715.685 82.8213 738.056C34.4357 760.428 -13.8788 783.272 -61.9797 806.25C-62.2114 806.42 -62.4799 806.54 -62.766 806.6C-63.0522 806.661 -63.3489 806.662 -63.6352 806.601C-63.9214 806.541 -64.19 806.421 -64.4218 806.251C-64.6536 806.081 -64.843 805.864 -64.9762 805.617C-65.1095 805.37 -65.1834 805.098 -65.1928 804.82C-65.2022 804.543 -65.1468 804.266 -65.0305 804.011C-64.9141 803.756 -64.7398 803.529 -64.52 803.345C-64.3002 803.161 -64.0402 803.026 -63.7586 802.948Z" fill="url(#paint80_linear_103_322)"/>
<path d="M246.545 660.025C264.405 652.344 282.336 644.729 300.339 637.316C318.341 629.904 336.414 622.626 354.631 615.686C363.738 612.25 372.918 608.88 382.096 605.645C391.275 602.411 400.597 599.244 409.918 596.28C428.56 590.349 447.417 584.958 466.415 580.309C466.695 580.228 466.99 580.203 467.282 580.234C467.573 580.266 467.854 580.354 468.108 580.493C468.362 580.632 468.582 580.819 468.756 581.043C468.93 581.266 469.054 581.521 469.119 581.791C469.194 582.057 469.213 582.334 469.175 582.606C469.137 582.879 469.043 583.141 468.897 583.379C468.752 583.617 468.559 583.825 468.328 583.993C468.098 584.16 467.835 584.282 467.554 584.352C448.626 589.002 429.842 594.325 411.341 600.188C402.02 603.153 392.84 606.252 383.662 609.487C374.482 612.721 365.375 616.09 356.267 619.527C338.051 626.401 319.978 633.61 302.047 641.022C284.115 648.435 266.184 655.982 248.324 663.664C248.068 663.817 247.78 663.917 247.479 663.956C247.179 663.996 246.873 663.974 246.581 663.891C246.29 663.81 246.021 663.671 245.792 663.483C245.562 663.295 245.377 663.063 245.25 662.803C245.123 662.542 245.055 662.258 245.053 661.971C245.05 661.684 245.112 661.399 245.234 661.136C245.357 660.874 245.537 660.639 245.763 660.447C245.989 660.255 246.256 660.111 246.545 660.025Z" fill="url(#paint81_linear_103_322)"/>
<path d="M487.481 575.391L500.645 572.628C500.93 572.57 501.224 572.566 501.51 572.617C501.797 572.667 502.07 572.77 502.314 572.92C502.56 573.07 502.771 573.265 502.936 573.492C503.101 573.719 503.217 573.975 503.278 574.245C503.339 574.515 503.342 574.794 503.29 575.065C503.237 575.337 503.128 575.595 502.969 575.826C502.811 576.057 502.606 576.257 502.365 576.414C502.125 576.571 501.855 576.681 501.57 576.738L488.406 579.501C487.831 579.617 487.23 579.512 486.736 579.208C486.242 578.905 485.896 578.429 485.773 577.884C485.651 577.338 485.762 576.77 486.082 576.302C486.402 575.835 486.905 575.507 487.481 575.391Z" fill="url(#paint82_linear_103_322)"/>
<path d="M521.844 568.719C535.174 566.428 548.552 564.541 561.976 563.059C568.735 562.318 575.424 561.711 582.184 561.105C588.943 560.499 595.632 560.161 602.392 559.824C615.912 559.218 629.502 559.016 643.021 559.285C649.781 559.421 656.541 559.757 663.301 560.161L668.353 560.431L673.405 560.835C676.75 561.038 680.165 561.307 683.509 561.644C696.957 562.857 710.406 564.608 723.712 566.766C737.018 568.922 750.323 571.55 763.487 574.649C789.731 580.875 815.52 588.708 840.691 598.099C840.982 598.203 841.248 598.362 841.474 598.564C841.7 598.767 841.881 599.011 842.007 599.28C842.133 599.55 842.201 599.841 842.207 600.135C842.213 600.43 842.157 600.723 842.043 600.996C841.805 601.542 841.354 601.98 840.785 602.218C840.214 602.457 839.569 602.478 838.983 602.277C813.991 592.962 788.394 585.173 762.349 578.962C749.351 575.952 736.211 573.346 722.929 571.145C709.766 568.989 696.459 567.236 683.082 566.024C679.738 565.687 676.393 565.485 673.049 565.216L667.997 564.811L663.016 564.541C656.328 564.138 649.639 563.8 642.879 563.666C629.502 563.396 616.054 563.599 602.677 564.205C595.917 564.474 589.228 564.946 582.54 565.417C575.851 565.889 569.163 566.563 562.474 567.372C549.168 568.786 535.862 570.674 522.626 572.897C522.339 572.953 522.042 572.953 521.754 572.899C521.466 572.844 521.192 572.736 520.949 572.58C520.706 572.423 520.498 572.223 520.338 571.989C520.177 571.756 520.067 571.495 520.015 571.221C519.963 570.947 519.969 570.666 520.033 570.395C520.097 570.123 520.219 569.866 520.389 569.639C520.559 569.413 520.776 569.22 521.026 569.074C521.276 568.928 521.554 568.83 521.844 568.786V568.719Z" fill="url(#paint83_linear_103_322)"/>
<path d="M860.688 605.916C896.834 620.674 931.629 638.395 965.143 657.87C998.659 677.344 1030.96 698.57 1062.62 720.538C1062.89 720.712 1063.11 720.935 1063.28 721.193C1063.46 721.451 1063.57 721.74 1063.63 722.041C1063.68 722.343 1063.67 722.65 1063.59 722.948C1063.52 723.245 1063.38 723.526 1063.19 723.772C1062.79 724.269 1062.21 724.601 1061.56 724.702C1060.91 724.802 1060.25 724.662 1059.71 724.311C1028.12 702.343 995.957 681.117 962.581 661.71C929.209 642.304 894.7 624.716 858.837 610.027C858.552 609.911 858.294 609.745 858.078 609.535C857.861 609.325 857.69 609.078 857.573 608.805C857.458 608.533 857.4 608.242 857.403 607.948C857.406 607.655 857.47 607.365 857.592 607.096C857.714 606.826 857.89 606.58 858.112 606.376C858.333 606.17 858.595 606.008 858.882 605.898C859.169 605.789 859.476 605.734 859.786 605.737C860.096 605.74 860.403 605.801 860.688 605.916Z" fill="url(#paint84_linear_103_322)"/>
<path d="M-38.2865 784.687C13.6568 759.306 65.7899 734.328 118.113 709.755C144.298 697.491 170.577 685.407 196.953 673.502C223.328 661.598 249.844 650.007 276.505 638.732C276.78 638.575 277.088 638.477 277.407 638.441C277.726 638.406 278.05 638.435 278.356 638.526C278.663 638.618 278.946 638.77 279.187 638.972C279.427 639.175 279.619 639.423 279.75 639.701C279.881 639.978 279.949 640.28 279.949 640.584C279.949 640.889 279.881 641.189 279.749 641.467C279.617 641.744 279.425 641.993 279.184 642.195C278.944 642.397 278.66 642.549 278.354 642.641C251.695 653.916 225.178 665.461 198.802 677.276C172.428 689.091 146.148 701.13 119.963 713.394C67.5925 737.788 15.4831 762.697 -36.3653 788.124C-36.6054 788.276 -36.8764 788.377 -37.1607 788.423C-37.445 788.47 -37.7364 788.458 -38.016 788.392C-38.2957 788.325 -38.5573 788.203 -38.7842 788.034C-39.011 787.865 -39.198 787.653 -39.3329 787.412C-39.4679 787.17 -39.5479 786.905 -39.5678 786.632C-39.5877 786.36 -39.547 786.086 -39.4485 785.829C-39.3499 785.573 -39.1955 785.339 -38.9953 785.142C-38.7952 784.945 -38.5537 784.79 -38.2865 784.687Z" fill="url(#paint85_linear_103_322)"/>
<path d="M297.923 629.837C315.854 622.491 333.785 615.349 352.001 608.678C361.038 605.309 370.217 602.075 379.396 598.975C388.575 595.875 397.896 593.045 407.218 590.282C425.86 584.846 444.717 580.062 463.786 575.929C482.855 571.796 502.091 568.562 521.493 566.226C521.798 566.178 522.11 566.19 522.409 566.26C522.709 566.33 522.991 566.457 523.237 566.634C523.483 566.81 523.689 567.033 523.841 567.287C523.994 567.541 524.092 567.822 524.126 568.113C524.177 568.405 524.165 568.704 524.091 568.992C524.018 569.28 523.884 569.551 523.698 569.79C523.513 570.028 523.279 570.229 523.01 570.381C522.741 570.532 522.443 570.632 522.134 570.673H522.062C502.85 573.054 483.781 576.266 464.853 580.309C445.855 584.285 427.141 589.069 408.569 594.527C399.32 597.155 390.069 600.12 380.962 603.085C371.853 606.05 362.675 609.352 353.638 612.721C335.493 619.392 317.562 626.468 299.702 633.745C299.436 633.857 299.149 633.918 298.858 633.924C298.567 633.93 298.277 633.882 298.006 633.781C297.735 633.681 297.487 633.531 297.278 633.34C297.068 633.149 296.901 632.92 296.785 632.667C296.544 632.148 296.528 631.561 296.741 631.031C296.954 630.501 297.379 630.072 297.923 629.837Z" fill="url(#paint86_linear_103_322)"/>
<path d="M544.757 563.732L556.497 562.79C557.124 562.769 557.736 562.971 558.21 563.359C558.685 563.746 558.988 564.288 559.059 564.879C559.088 565.176 559.054 565.475 558.958 565.761C558.862 566.045 558.706 566.308 558.501 566.535C558.295 566.761 558.043 566.946 557.76 567.078C557.477 567.21 557.169 567.287 556.853 567.304H556.782L545.184 568.247C544.605 568.216 544.056 567.988 543.64 567.606C543.223 567.223 542.965 566.712 542.914 566.164C542.862 565.617 543.02 565.07 543.358 564.624C543.696 564.177 544.192 563.861 544.757 563.732Z" fill="url(#paint87_linear_103_322)"/>
<path d="M579.91 561.644C609.243 560.744 638.606 562.074 667.715 565.62C696.805 569.231 725.547 575.022 753.67 582.938C781.765 590.948 809.208 600.879 835.783 612.654C862.304 624.498 888.059 637.819 912.916 652.546C913.492 652.895 913.897 653.446 914.044 654.077C914.191 654.709 914.067 655.371 913.699 655.915C913.331 656.46 912.749 656.845 912.082 656.984C911.415 657.123 910.717 657.005 910.14 656.657C885.483 642.005 859.916 628.774 833.578 617.035C807.265 605.328 780.083 595.463 752.247 587.52C724.405 579.563 695.918 573.794 667.075 570.269C638.226 566.735 609.127 565.382 580.052 566.226C579.734 566.235 579.417 566.185 579.12 566.078C578.823 565.971 578.551 565.81 578.32 565.604C578.089 565.397 577.903 565.149 577.773 564.874C577.642 564.6 577.571 564.304 577.562 564.002C577.552 563.702 577.605 563.402 577.718 563.12C577.831 562.839 578.001 562.581 578.219 562.363C578.437 562.144 578.699 561.968 578.989 561.844C579.278 561.721 579.592 561.653 579.91 561.644Z" fill="url(#paint88_linear_103_322)"/>
<path d="M932.554 664.54C965.143 684.958 996.238 707.397 1026.34 730.846C1056.43 754.297 1085.61 778.824 1114.42 803.622C1114.69 803.848 1114.91 804.121 1115.06 804.426C1115.22 804.731 1115.31 805.062 1115.32 805.399C1115.34 805.738 1115.29 806.076 1115.18 806.395C1115.06 806.714 1114.87 807.009 1114.64 807.261C1114.4 807.513 1114.11 807.719 1113.79 807.865C1113.47 808.011 1113.12 808.097 1112.76 808.116C1112.4 808.135 1112.05 808.086 1111.71 807.974C1111.37 807.863 1111.06 807.688 1110.8 807.463C1081.98 782.665 1052.95 758.137 1022.99 734.755C993.037 711.373 962.084 689.001 929.708 668.651C929.136 668.281 928.741 667.714 928.608 667.071C928.475 666.427 928.614 665.76 928.996 665.214C929.183 664.948 929.423 664.72 929.703 664.542C929.983 664.364 930.297 664.241 930.628 664.177C930.958 664.115 931.299 664.115 931.629 664.177C931.96 664.239 932.274 664.363 932.554 664.54Z" fill="url(#paint89_linear_103_322)"/>
</g>
<defs>
<linearGradient id="paint0_linear_103_322" x1="151.124" y1="-272.58" x2="151.124" y2="1014.47" gradientUnits="userSpaceOnUse">
<stop stop-color="#EBEBEB" stop-opacity="0.4"/>
<stop offset="1" stop-color="#004FFF"/>
</linearGradient>
<linearGradient id="paint1_linear_103_322" x1="364.098" y1="651.106" x2="364.098" y2="754.965" gradientUnits="userSpaceOnUse">
<stop stop-color="#EBEBEB" stop-opacity="0.4"/>
<stop offset="1" stop-color="#004FFF"/>
</linearGradient>
<linearGradient id="paint2_linear_103_322" x1="495.79" y1="634.998" x2="495.79" y2="651.897" gradientUnits="userSpaceOnUse">
<stop stop-color="#EBEBEB" stop-opacity="0.4"/>
<stop offset="1" stop-color="#004FFF"/>
</linearGradient>
<linearGradient id="paint3_linear_103_322" x1="523.551" y1="621.33" x2="523.551" y2="635.736" gradientUnits="userSpaceOnUse">
<stop stop-color="#EBEBEB" stop-opacity="0.4"/>
<stop offset="1" stop-color="#004FFF"/>
</linearGradient>
<linearGradient id="paint4_linear_103_322" x1="640.642" y1="481.056" x2="640.642" y2="622.016" gradientUnits="userSpaceOnUse">
<stop stop-color="#EBEBEB" stop-opacity="0.4"/>
<stop offset="1" stop-color="#004FFF"/>
</linearGradient>
<linearGradient id="paint5_linear_103_322" x1="758.594" y1="459.333" x2="758.594" y2="481.275" gradientUnits="userSpaceOnUse">
<stop stop-color="#EBEBEB" stop-opacity="0.4"/>
<stop offset="1" stop-color="#004FFF"/>
</linearGradient>
<linearGradient id="paint6_linear_103_322" x1="782.473" y1="441.112" x2="782.473" y2="459.436" gradientUnits="userSpaceOnUse">
<stop stop-color="#EBEBEB" stop-opacity="0.4"/>
<stop offset="1" stop-color="#004FFF"/>
</linearGradient>
<linearGradient id="paint7_linear_103_322" x1="883.336" y1="268.143" x2="883.336" y2="441.176" gradientUnits="userSpaceOnUse">
<stop stop-color="#EBEBEB" stop-opacity="0.4"/>
<stop offset="1" stop-color="#004FFF"/>
</linearGradient>
<linearGradient id="paint8_linear_103_322" x1="985.302" y1="243.433" x2="985.302" y2="267.8" gradientUnits="userSpaceOnUse">
<stop stop-color="#EBEBEB" stop-opacity="0.4"/>
<stop offset="1" stop-color="#004FFF"/>
</linearGradient>
<linearGradient id="paint9_linear_103_322" x1="1006.49" y1="222.995" x2="1006.49" y2="243.041" gradientUnits="userSpaceOnUse">
<stop stop-color="#EBEBEB" stop-opacity="0.4"/>
<stop offset="1" stop-color="#004FFF"/>
</linearGradient>
<linearGradient id="paint10_linear_103_322" x1="1096.45" y1="33.6401" x2="1096.45" y2="222.603" gradientUnits="userSpaceOnUse">
<stop stop-color="#EBEBEB" stop-opacity="0.4"/>
<stop offset="1" stop-color="#004FFF"/>
</linearGradient>
<linearGradient id="paint11_linear_103_322" x1="468.148" y1="589.074" x2="468.148" y2="702.364" gradientUnits="userSpaceOnUse">
<stop stop-color="#EBEBEB" stop-opacity="0.4"/>
<stop offset="1" stop-color="#004FFF"/>
</linearGradient>
<linearGradient id="paint12_linear_103_322" x1="596.829" y1="571.819" x2="596.829" y2="589.001" gradientUnits="userSpaceOnUse">
<stop stop-color="#EBEBEB" stop-opacity="0.4"/>
<stop offset="1" stop-color="#004FFF"/>
</linearGradient>
<linearGradient id="paint13_linear_103_322" x1="636.025" y1="542.646" x2="636.025" y2="571.659" gradientUnits="userSpaceOnUse">
<stop stop-color="#EBEBEB" stop-opacity="0.4"/>
<stop offset="1" stop-color="#004FFF"/>
</linearGradient>
<linearGradient id="paint14_linear_103_322" x1="763.76" y1="398.982" x2="763.76" y2="542.387" gradientUnits="userSpaceOnUse">
<stop stop-color="#EBEBEB" stop-opacity="0.4"/>
<stop offset="1" stop-color="#004FFF"/>
</linearGradient>
<linearGradient id="paint15_linear_103_322" x1="880.753" y1="377.797" x2="880.753" y2="398.122" gradientUnits="userSpaceOnUse">
<stop stop-color="#EBEBEB" stop-opacity="0.4"/>
<stop offset="1" stop-color="#004FFF"/>
</linearGradient>
<linearGradient id="paint16_linear_103_322" x1="915.975" y1="342.291" x2="915.975" y2="376.828" gradientUnits="userSpaceOnUse">
<stop stop-color="#EBEBEB" stop-opacity="0.4"/>
<stop offset="1" stop-color="#004FFF"/>
</linearGradient>
<linearGradient id="paint17_linear_103_322" x1="1030.22" y1="173.771" x2="1030.22" y2="341.25" gradientUnits="userSpaceOnUse">
<stop stop-color="#EBEBEB" stop-opacity="0.4"/>
<stop offset="1" stop-color="#004FFF"/>
</linearGradient>
<linearGradient id="paint18_linear_103_322" x1="230.707" y1="695.599" x2="230.707" y2="789.075" gradientUnits="userSpaceOnUse">
<stop stop-color="#EBEBEB" stop-opacity="0.4"/>
<stop offset="1" stop-color="#004FFF"/>
</linearGradient>
<linearGradient id="paint19_linear_103_322" x1="365.319" y1="681.77" x2="365.319" y2="695.584" gradientUnits="userSpaceOnUse">
<stop stop-color="#EBEBEB" stop-opacity="0.4"/>
<stop offset="1" stop-color="#004FFF"/>
</linearGradient>
<linearGradient id="paint20_linear_103_322" x1="420.029" y1="646.232" x2="420.029" y2="681.661" gradientUnits="userSpaceOnUse">
<stop stop-color="#EBEBEB" stop-opacity="0.4"/>
<stop offset="1" stop-color="#004FFF"/>
</linearGradient>
<linearGradient id="paint21_linear_103_322" x1="571.31" y1="528.982" x2="571.31" y2="645.887" gradientUnits="userSpaceOnUse">
<stop stop-color="#EBEBEB" stop-opacity="0.4"/>
<stop offset="1" stop-color="#004FFF"/>
</linearGradient>
<linearGradient id="paint22_linear_103_322" x1="698.989" y1="512.428" x2="698.989" y2="528.185" gradientUnits="userSpaceOnUse">
<stop stop-color="#EBEBEB" stop-opacity="0.4"/>
<stop offset="1" stop-color="#004FFF"/>
</linearGradient>
<linearGradient id="paint23_linear_103_322" x1="751.144" y1="470.544" x2="751.144" y2="511.552" gradientUnits="userSpaceOnUse">
<stop stop-color="#EBEBEB" stop-opacity="0.4"/>
<stop offset="1" stop-color="#004FFF"/>
</linearGradient>
<linearGradient id="paint24_linear_103_322" x1="894.704" y1="335.029" x2="894.704" y2="469.498" gradientUnits="userSpaceOnUse">
<stop stop-color="#EBEBEB" stop-opacity="0.4"/>
<stop offset="1" stop-color="#004FFF"/>
</linearGradient>
<linearGradient id="paint25_linear_103_322" x1="1015.23" y1="315.129" x2="1015.23" y2="333.322" gradientUnits="userSpaceOnUse">
<stop stop-color="#EBEBEB" stop-opacity="0.4"/>
<stop offset="1" stop-color="#004FFF"/>
</linearGradient>
<linearGradient id="paint26_linear_103_322" x1="1063.01" y1="264.456" x2="1063.01" y2="313.33" gradientUnits="userSpaceOnUse">
<stop stop-color="#EBEBEB" stop-opacity="0.4"/>
<stop offset="1" stop-color="#004FFF"/>
</linearGradient>
<linearGradient id="paint27_linear_103_322" x1="1189.42" y1="96.5259" x2="1189.42" y2="262.451" gradientUnits="userSpaceOnUse">
<stop stop-color="#EBEBEB" stop-opacity="0.4"/>
<stop offset="1" stop-color="#004FFF"/>
</linearGradient>
<linearGradient id="paint28_linear_103_322" x1="310.597" y1="652.652" x2="310.597" y2="750.513" gradientUnits="userSpaceOnUse">
<stop stop-color="#EBEBEB" stop-opacity="0.4"/>
<stop offset="1" stop-color="#004FFF"/>
</linearGradient>
<linearGradient id="paint29_linear_103_322" x1="443.898" y1="638.092" x2="443.898" y2="651.895" gradientUnits="userSpaceOnUse">
<stop stop-color="#EBEBEB" stop-opacity="0.4"/>
<stop offset="1" stop-color="#004FFF"/>
</linearGradient>
<linearGradient id="paint30_linear_103_322" x1="510.86" y1="589.191" x2="510.86" y2="637.309" gradientUnits="userSpaceOnUse">
<stop stop-color="#EBEBEB" stop-opacity="0.4"/>
<stop offset="1" stop-color="#004FFF"/>
</linearGradient>
<linearGradient id="paint31_linear_103_322" x1="677.164" y1="481.023" x2="677.164" y2="588.042" gradientUnits="userSpaceOnUse">
<stop stop-color="#EBEBEB" stop-opacity="0.4"/>
<stop offset="1" stop-color="#004FFF"/>
</linearGradient>
<linearGradient id="paint32_linear_103_322" x1="808.099" y1="466.525" x2="808.099" y2="479.867" gradientUnits="userSpaceOnUse">
<stop stop-color="#EBEBEB" stop-opacity="0.4"/>
<stop offset="1" stop-color="#004FFF"/>
</linearGradient>
<linearGradient id="paint33_linear_103_322" x1="875.232" y1="417.82" x2="875.232" y2="465.32" gradientUnits="userSpaceOnUse">
<stop stop-color="#EBEBEB" stop-opacity="0.4"/>
<stop offset="1" stop-color="#004FFF"/>
</linearGradient>
<linearGradient id="paint34_linear_103_322" x1="1037.44" y1="295.166" x2="1037.44" y2="416.382" gradientUnits="userSpaceOnUse">
<stop stop-color="#EBEBEB" stop-opacity="0.4"/>
<stop offset="1" stop-color="#004FFF"/>
</linearGradient>
<linearGradient id="paint35_linear_103_322" x1="389.782" y1="609.455" x2="389.782" y2="709.733" gradientUnits="userSpaceOnUse">
<stop stop-color="#EBEBEB" stop-opacity="0.4"/>
<stop offset="1" stop-color="#004FFF"/>
</linearGradient>
<linearGradient id="paint36_linear_103_322" x1="522.446" y1="595.05" x2="522.446" y2="608.054" gradientUnits="userSpaceOnUse">
<stop stop-color="#EBEBEB" stop-opacity="0.4"/>
<stop offset="1" stop-color="#004FFF"/>
</linearGradient>
<linearGradient id="paint37_linear_103_322" x1="603.514" y1="538.67" x2="603.514" y2="593.751" gradientUnits="userSpaceOnUse">
<stop stop-color="#EBEBEB" stop-opacity="0.4"/>
<stop offset="1" stop-color="#004FFF"/>
</linearGradient>
<linearGradient id="paint38_linear_103_322" x1="789.438" y1="454.345" x2="789.438" y2="537.502" gradientUnits="userSpaceOnUse">
<stop stop-color="#EBEBEB" stop-opacity="0.4"/>
<stop offset="1" stop-color="#004FFF"/>
</linearGradient>
<linearGradient id="paint39_linear_103_322" x1="926.55" y1="443.239" x2="926.55" y2="453.48" gradientUnits="userSpaceOnUse">
<stop stop-color="#EBEBEB" stop-opacity="0.4"/>
<stop offset="1" stop-color="#004FFF"/>
</linearGradient>
<linearGradient id="paint40_linear_103_322" x1="1010.17" y1="394.738" x2="1010.17" y2="442.334" gradientUnits="userSpaceOnUse">
<stop stop-color="#EBEBEB" stop-opacity="0.4"/>
<stop offset="1" stop-color="#004FFF"/>
</linearGradient>
<linearGradient id="paint41_linear_103_322" x1="1188.98" y1="276.31" x2="1188.98" y2="393.31" gradientUnits="userSpaceOnUse">
<stop stop-color="#EBEBEB" stop-opacity="0.4"/>
<stop offset="1" stop-color="#004FFF"/>
</linearGradient>
<linearGradient id="paint42_linear_103_322" x1="272.979" y1="669.396" x2="272.979" y2="733.438" gradientUnits="userSpaceOnUse">
<stop stop-color="#EBEBEB" stop-opacity="0.4"/>
<stop offset="1" stop-color="#004FFF"/>
</linearGradient>
<linearGradient id="paint43_linear_103_322" x1="469.185" y1="570.31" x2="469.185" y2="667.882" gradientUnits="userSpaceOnUse">
<stop stop-color="#EBEBEB" stop-opacity="0.4"/>
<stop offset="1" stop-color="#004FFF"/>
</linearGradient>
<linearGradient id="paint44_linear_103_322" x1="602.832" y1="557.837" x2="602.832" y2="568.887" gradientUnits="userSpaceOnUse">
<stop stop-color="#EBEBEB" stop-opacity="0.4"/>
<stop offset="1" stop-color="#004FFF"/>
</linearGradient>
<linearGradient id="paint45_linear_103_322" x1="701.22" y1="508.304" x2="701.22" y2="556.616" gradientUnits="userSpaceOnUse">
<stop stop-color="#EBEBEB" stop-opacity="0.4"/>
<stop offset="1" stop-color="#004FFF"/>
</linearGradient>
<linearGradient id="paint46_linear_103_322" x1="909.162" y1="457.493" x2="909.162" y2="508.232" gradientUnits="userSpaceOnUse">
<stop stop-color="#EBEBEB" stop-opacity="0.4"/>
<stop offset="1" stop-color="#004FFF"/>
</linearGradient>
<linearGradient id="paint47_linear_103_322" x1="1051.93" y1="450.351" x2="1051.93" y2="457.56" gradientUnits="userSpaceOnUse">
<stop stop-color="#EBEBEB" stop-opacity="0.4"/>
<stop offset="1" stop-color="#004FFF"/>
</linearGradient>
<linearGradient id="paint48_linear_103_322" x1="1151.35" y1="402.528" x2="1151.35" y2="450.231" gradientUnits="userSpaceOnUse">
<stop stop-color="#EBEBEB" stop-opacity="0.4"/>
<stop offset="1" stop-color="#004FFF"/>
</linearGradient>
<linearGradient id="paint49_linear_103_322" x1="338.554" y1="628.221" x2="338.554" y2="703.209" gradientUnits="userSpaceOnUse">
<stop stop-color="#EBEBEB" stop-opacity="0.4"/>
<stop offset="1" stop-color="#004FFF"/>
</linearGradient>
<linearGradient id="paint50_linear_103_322" x1="550.618" y1="541.983" x2="550.618" y2="626.232" gradientUnits="userSpaceOnUse">
<stop stop-color="#EBEBEB" stop-opacity="0.4"/>
<stop offset="1" stop-color="#004FFF"/>
</linearGradient>
<linearGradient id="paint51_linear_103_322" x1="687.952" y1="533.98" x2="687.952" y2="541.671" gradientUnits="userSpaceOnUse">
<stop stop-color="#EBEBEB" stop-opacity="0.4"/>
<stop offset="1" stop-color="#004FFF"/>
</linearGradient>
<linearGradient id="paint52_linear_103_322" x1="804.567" y1="507.668" x2="804.567" y2="534.05" gradientUnits="userSpaceOnUse">
<stop stop-color="#EBEBEB" stop-opacity="0.4"/>
<stop offset="1" stop-color="#004FFF"/>
</linearGradient>
<linearGradient id="paint53_linear_103_322" x1="1032.3" y1="493.313" x2="1032.3" y2="509.611" gradientUnits="userSpaceOnUse">
<stop stop-color="#EBEBEB" stop-opacity="0.4"/>
<stop offset="1" stop-color="#004FFF"/>
</linearGradient>
<linearGradient id="paint54_linear_103_322" x1="149.465" y1="688.405" x2="149.465" y2="784.947" gradientUnits="userSpaceOnUse">
<stop stop-color="#EBEBEB" stop-opacity="0.4"/>
<stop offset="1" stop-color="#004FFF"/>
</linearGradient>
<linearGradient id="paint55_linear_103_322" x1="282.896" y1="674.974" x2="282.896" y2="685.989" gradientUnits="userSpaceOnUse">
<stop stop-color="#EBEBEB" stop-opacity="0.4"/>
<stop offset="1" stop-color="#004FFF"/>
</linearGradient>
<linearGradient id="paint56_linear_103_322" x1="404.825" y1="590.24" x2="404.825" y2="672.582" gradientUnits="userSpaceOnUse">
<stop stop-color="#EBEBEB" stop-opacity="0.4"/>
<stop offset="1" stop-color="#004FFF"/>
</linearGradient>
<linearGradient id="paint57_linear_103_322" x1="635.304" y1="532.797" x2="635.304" y2="588.553" gradientUnits="userSpaceOnUse">
<stop stop-color="#EBEBEB" stop-opacity="0.4"/>
<stop offset="1" stop-color="#004FFF"/>
</linearGradient>
<linearGradient id="paint58_linear_103_322" x1="777.613" y1="530.647" x2="777.613" y2="534.827" gradientUnits="userSpaceOnUse">
<stop stop-color="#EBEBEB" stop-opacity="0.4"/>
<stop offset="1" stop-color="#004FFF"/>
</linearGradient>
<linearGradient id="paint59_linear_103_322" x1="909.788" y1="529.796" x2="909.788" y2="545.7" gradientUnits="userSpaceOnUse">
<stop stop-color="#EBEBEB" stop-opacity="0.4"/>
<stop offset="1" stop-color="#004FFF"/>
</linearGradient>
<linearGradient id="paint60_linear_103_322" x1="1152.51" y1="544.378" x2="1152.51" y2="560.884" gradientUnits="userSpaceOnUse">
<stop stop-color="#EBEBEB" stop-opacity="0.4"/>
<stop offset="1" stop-color="#004FFF"/>
</linearGradient>
<linearGradient id="paint61_linear_103_322" x1="201.608" y1="658.42" x2="201.608" y2="755.393" gradientUnits="userSpaceOnUse">
<stop stop-color="#EBEBEB" stop-opacity="0.4"/>
<stop offset="1" stop-color="#004FFF"/>
</linearGradient>
<linearGradient id="paint62_linear_103_322" x1="334.826" y1="645.185" x2="334.826" y2="655.65" gradientUnits="userSpaceOnUse">
<stop stop-color="#EBEBEB" stop-opacity="0.4"/>
<stop offset="1" stop-color="#004FFF"/>
</linearGradient>
<linearGradient id="paint63_linear_103_322" x1="472.491" y1="561.986" x2="472.491" y2="642.433" gradientUnits="userSpaceOnUse">
<stop stop-color="#EBEBEB" stop-opacity="0.4"/>
<stop offset="1" stop-color="#004FFF"/>
</linearGradient>
<linearGradient id="paint64_linear_103_322" x1="721.919" y1="542.304" x2="721.919" y2="561.809" gradientUnits="userSpaceOnUse">
<stop stop-color="#EBEBEB" stop-opacity="0.4"/>
<stop offset="1" stop-color="#004FFF"/>
</linearGradient>
<linearGradient id="paint65_linear_103_322" x1="866.954" y1="549.23" x2="866.954" y2="555.189" gradientUnits="userSpaceOnUse">
<stop stop-color="#EBEBEB" stop-opacity="0.4"/>
<stop offset="1" stop-color="#004FFF"/>
</linearGradient>
<linearGradient id="paint66_linear_103_322" x1="1009.86" y1="554.358" x2="1009.86" y2="614.051" gradientUnits="userSpaceOnUse">
<stop stop-color="#EBEBEB" stop-opacity="0.4"/>
<stop offset="1" stop-color="#004FFF"/>
</linearGradient>
<linearGradient id="paint67_linear_103_322" x1="253.102" y1="629.272" x2="253.102" y2="725.213" gradientUnits="userSpaceOnUse">
<stop stop-color="#EBEBEB" stop-opacity="0.4"/>
<stop offset="1" stop-color="#004FFF"/>
</linearGradient>
<linearGradient id="paint68_linear_103_322" x1="386.687" y1="616.654" x2="386.687" y2="626.337" gradientUnits="userSpaceOnUse">
<stop stop-color="#EBEBEB" stop-opacity="0.4"/>
<stop offset="1" stop-color="#004FFF"/>
</linearGradient>
<linearGradient id="paint69_linear_103_322" x1="541.672" y1="550.997" x2="541.672" y2="614.015" gradientUnits="userSpaceOnUse">
<stop stop-color="#EBEBEB" stop-opacity="0.4"/>
<stop offset="1" stop-color="#004FFF"/>
</linearGradient>
<linearGradient id="paint70_linear_103_322" x1="807.817" y1="550.261" x2="807.817" y2="590.06" gradientUnits="userSpaceOnUse">
<stop stop-color="#EBEBEB" stop-opacity="0.4"/>
<stop offset="1" stop-color="#004FFF"/>
</linearGradient>
<linearGradient id="paint71_linear_103_322" x1="949.888" y1="591.515" x2="949.888" y2="600.846" gradientUnits="userSpaceOnUse">
<stop stop-color="#EBEBEB" stop-opacity="0.4"/>
<stop offset="1" stop-color="#004FFF"/>
</linearGradient>
<linearGradient id="paint72_linear_103_322" x1="1099.45" y1="603.077" x2="1099.45" y2="704.268" gradientUnits="userSpaceOnUse">
<stop stop-color="#EBEBEB" stop-opacity="0.4"/>
<stop offset="1" stop-color="#004FFF"/>
</linearGradient>
<linearGradient id="paint73_linear_103_322" x1="44.2785" y1="698.705" x2="44.2785" y2="824.251" gradientUnits="userSpaceOnUse">
<stop stop-color="#EBEBEB" stop-opacity="0.4"/>
<stop offset="1" stop-color="#004FFF"/>
</linearGradient>
<linearGradient id="paint74_linear_103_322" x1="304.712" y1="602.207" x2="304.712" y2="694.558" gradientUnits="userSpaceOnUse">
<stop stop-color="#EBEBEB" stop-opacity="0.4"/>
<stop offset="1" stop-color="#004FFF"/>
</linearGradient>
<linearGradient id="paint75_linear_103_322" x1="439.45" y1="591.186" x2="439.45" y2="599.824" gradientUnits="userSpaceOnUse">
<stop stop-color="#EBEBEB" stop-opacity="0.4"/>
<stop offset="1" stop-color="#004FFF"/>
</linearGradient>
<linearGradient id="paint76_linear_103_322" x1="611.528" y1="555.199" x2="611.528" y2="589.356" gradientUnits="userSpaceOnUse">
<stop stop-color="#EBEBEB" stop-opacity="0.4"/>
<stop offset="1" stop-color="#004FFF"/>
</linearGradient>
<linearGradient id="paint77_linear_103_322" x1="886.861" y1="571.308" x2="886.861" y2="657.791" gradientUnits="userSpaceOnUse">
<stop stop-color="#EBEBEB" stop-opacity="0.4"/>
<stop offset="1" stop-color="#004FFF"/>
</linearGradient>
<linearGradient id="paint78_linear_103_322" x1="1020.9" y1="662.461" x2="1020.9" y2="673.656" gradientUnits="userSpaceOnUse">
<stop stop-color="#EBEBEB" stop-opacity="0.4"/>
<stop offset="1" stop-color="#004FFF"/>
</linearGradient>
<linearGradient id="paint79_linear_103_322" x1="1177.43" y1="678.63" x2="1177.43" y2="806.248" gradientUnits="userSpaceOnUse">
<stop stop-color="#EBEBEB" stop-opacity="0.4"/>
<stop offset="1" stop-color="#004FFF"/>
</linearGradient>
<linearGradient id="paint80_linear_103_322" x1="82.3558" y1="668.408" x2="82.3558" y2="806.646" gradientUnits="userSpaceOnUse">
<stop stop-color="#EBEBEB" stop-opacity="0.4"/>
<stop offset="1" stop-color="#004FFF"/>
</linearGradient>
<linearGradient id="paint81_linear_103_322" x1="357.124" y1="580.221" x2="357.124" y2="663.975" gradientUnits="userSpaceOnUse">
<stop stop-color="#EBEBEB" stop-opacity="0.4"/>
<stop offset="1" stop-color="#004FFF"/>
</linearGradient>
<linearGradient id="paint82_linear_103_322" x1="494.525" y1="572.582" x2="494.525" y2="579.547" gradientUnits="userSpaceOnUse">
<stop stop-color="#EBEBEB" stop-opacity="0.4"/>
<stop offset="1" stop-color="#004FFF"/>
</linearGradient>
<linearGradient id="paint83_linear_103_322" x1="681.094" y1="559.168" x2="681.094" y2="602.414" gradientUnits="userSpaceOnUse">
<stop stop-color="#EBEBEB" stop-opacity="0.4"/>
<stop offset="1" stop-color="#004FFF"/>
</linearGradient>
<linearGradient id="paint84_linear_103_322" x1="960.534" y1="605.737" x2="960.534" y2="724.733" gradientUnits="userSpaceOnUse">
<stop stop-color="#EBEBEB" stop-opacity="0.4"/>
<stop offset="1" stop-color="#004FFF"/>
</linearGradient>
<linearGradient id="paint85_linear_103_322" x1="120.188" y1="638.427" x2="120.188" y2="788.452" gradientUnits="userSpaceOnUse">
<stop stop-color="#EBEBEB" stop-opacity="0.4"/>
<stop offset="1" stop-color="#004FFF"/>
</linearGradient>
<linearGradient id="paint86_linear_103_322" x1="410.374" y1="566.197" x2="410.374" y2="633.924" gradientUnits="userSpaceOnUse">
<stop stop-color="#EBEBEB" stop-opacity="0.4"/>
<stop offset="1" stop-color="#004FFF"/>
</linearGradient>
<linearGradient id="paint87_linear_103_322" x1="550.987" y1="562.788" x2="550.987" y2="568.247" gradientUnits="userSpaceOnUse">
<stop stop-color="#EBEBEB" stop-opacity="0.4"/>
<stop offset="1" stop-color="#004FFF"/>
</linearGradient>
<linearGradient id="paint88_linear_103_322" x1="745.832" y1="561.372" x2="745.832" y2="657.041" gradientUnits="userSpaceOnUse">
<stop stop-color="#EBEBEB" stop-opacity="0.4"/>
<stop offset="1" stop-color="#004FFF"/>
</linearGradient>
<linearGradient id="paint89_linear_103_322" x1="1021.94" y1="664.13" x2="1021.94" y2="808.12" gradientUnits="userSpaceOnUse">
<stop stop-color="#EBEBEB" stop-opacity="0.4"/>
<stop offset="1" stop-color="#004FFF"/>
</linearGradient>
</defs>
</svg>
